%TF.GenerationSoftware,KiCad,Pcbnew,8.0.3*%
%TF.CreationDate,2024-06-18T13:15:14+02:00*%
%TF.ProjectId,bd1-board,6264312d-626f-4617-9264-2e6b69636164,rev?*%
%TF.SameCoordinates,Original*%
%TF.FileFunction,Copper,L1,Top*%
%TF.FilePolarity,Positive*%
%FSLAX46Y46*%
G04 Gerber Fmt 4.6, Leading zero omitted, Abs format (unit mm)*
G04 Created by KiCad (PCBNEW 8.0.3) date 2024-06-18 13:15:14*
%MOMM*%
%LPD*%
G01*
G04 APERTURE LIST*
G04 Aperture macros list*
%AMRotRect*
0 Rectangle, with rotation*
0 The origin of the aperture is its center*
0 $1 length*
0 $2 width*
0 $3 Rotation angle, in degrees counterclockwise*
0 Add horizontal line*
21,1,$1,$2,0,0,$3*%
G04 Aperture macros list end*
%TA.AperFunction,SMDPad,CuDef*%
%ADD10R,1.500000X0.900000*%
%TD*%
%TA.AperFunction,ComponentPad*%
%ADD11RotRect,1.370000X1.370000X131.000000*%
%TD*%
%TA.AperFunction,ComponentPad*%
%ADD12C,1.370000*%
%TD*%
%TA.AperFunction,ViaPad*%
%ADD13C,0.600000*%
%TD*%
%TA.AperFunction,Conductor*%
%ADD14C,0.200000*%
%TD*%
G04 APERTURE END LIST*
D10*
%TO.P,D49,1,VDD*%
%TO.N,VDD*%
X-23812000Y17078000D03*
%TO.P,D49,2,DOUT*%
%TO.N,Net-(D49-DOUT)*%
X-23812000Y20378000D03*
%TO.P,D49,3,VSS*%
%TO.N,GND*%
X-28712000Y20378000D03*
%TO.P,D49,4,DIN*%
%TO.N,Net-(D48-DOUT)*%
X-28712000Y17078000D03*
%TD*%
%TO.P,D94,1,VDD*%
%TO.N,VDD*%
X50898000Y24654000D03*
%TO.P,D94,2,DOUT*%
%TO.N,Net-(D94-DOUT)*%
X50898000Y27954000D03*
%TO.P,D94,3,VSS*%
%TO.N,GND*%
X45998000Y27954000D03*
%TO.P,D94,4,DIN*%
%TO.N,Net-(D93-DOUT)*%
X45998000Y24654000D03*
%TD*%
%TO.P,D72,1,VDD*%
%TO.N,VDD*%
X21014000Y9508000D03*
%TO.P,D72,2,DOUT*%
%TO.N,Net-(D72-DOUT)*%
X21014000Y12808000D03*
%TO.P,D72,3,VSS*%
%TO.N,GND*%
X16114000Y12808000D03*
%TO.P,D72,4,DIN*%
%TO.N,Net-(D71-DOUT)*%
X16114000Y9508000D03*
%TD*%
%TO.P,D3,1,VDD*%
%TO.N,VDD*%
X-98522000Y24654000D03*
%TO.P,D3,2,DOUT*%
%TO.N,Net-(D3-DOUT)*%
X-98522000Y27954000D03*
%TO.P,D3,3,VSS*%
%TO.N,GND*%
X-103422000Y27954000D03*
%TO.P,D3,4,DIN*%
%TO.N,Net-(D2-DOUT)*%
X-103422000Y24654000D03*
%TD*%
%TO.P,D71,1,VDD*%
%TO.N,VDD*%
X21014000Y1926000D03*
%TO.P,D71,2,DOUT*%
%TO.N,Net-(D71-DOUT)*%
X21014000Y5226000D03*
%TO.P,D71,3,VSS*%
%TO.N,GND*%
X16114000Y5226000D03*
%TO.P,D71,4,DIN*%
%TO.N,Net-(D70-DOUT)*%
X16114000Y1926000D03*
%TD*%
%TO.P,D12,1,VDD*%
%TO.N,VDD*%
X-83580000Y1926000D03*
%TO.P,D12,2,DOUT*%
%TO.N,Net-(D12-DOUT)*%
X-83580000Y5226000D03*
%TO.P,D12,3,VSS*%
%TO.N,GND*%
X-88480000Y5226000D03*
%TO.P,D12,4,DIN*%
%TO.N,Net-(D11-DOUT)*%
X-88480000Y1926000D03*
%TD*%
%TO.P,D89,1,VDD*%
%TO.N,VDD*%
X43427000Y24654000D03*
%TO.P,D89,2,DOUT*%
%TO.N,Net-(D89-DOUT)*%
X43427000Y27954000D03*
%TO.P,D89,3,VSS*%
%TO.N,GND*%
X38527000Y27954000D03*
%TO.P,D89,4,DIN*%
%TO.N,Net-(D88-DOUT)*%
X38527000Y24654000D03*
%TD*%
%TO.P,D27,1,VDD*%
%TO.N,VDD*%
X-61167000Y1926000D03*
%TO.P,D27,2,DOUT*%
%TO.N,Net-(D27-DOUT)*%
X-61167000Y5226000D03*
%TO.P,D27,3,VSS*%
%TO.N,GND*%
X-66067000Y5226000D03*
%TO.P,D27,4,DIN*%
%TO.N,Net-(D26-DOUT)*%
X-66067000Y1926000D03*
%TD*%
%TO.P,D79,1,VDD*%
%TO.N,VDD*%
X28485000Y32227000D03*
%TO.P,D79,2,DOUT*%
%TO.N,Net-(D79-DOUT)*%
X28485000Y35527000D03*
%TO.P,D79,3,VSS*%
%TO.N,GND*%
X23585000Y35527000D03*
%TO.P,D79,4,DIN*%
%TO.N,Net-(D78-DOUT)*%
X23585000Y32227000D03*
%TD*%
%TO.P,D35,1,VDD*%
%TO.N,VDD*%
X-46225000Y1926000D03*
%TO.P,D35,2,DOUT*%
%TO.N,Net-(D35-DOUT)*%
X-46225000Y5226000D03*
%TO.P,D35,3,VSS*%
%TO.N,GND*%
X-51125000Y5226000D03*
%TO.P,D35,4,DIN*%
%TO.N,Net-(D34-DOUT)*%
X-51125000Y1926000D03*
%TD*%
%TO.P,D28,1,VDD*%
%TO.N,VDD*%
X-61167000Y9508000D03*
%TO.P,D28,2,DOUT*%
%TO.N,Net-(D28-DOUT)*%
X-61167000Y12808000D03*
%TO.P,D28,3,VSS*%
%TO.N,GND*%
X-66067000Y12808000D03*
%TO.P,D28,4,DIN*%
%TO.N,Net-(D27-DOUT)*%
X-66067000Y9508000D03*
%TD*%
%TO.P,D5,1,VDD*%
%TO.N,VDD*%
X-94320000Y39802000D03*
%TO.P,D5,2,DOUT*%
%TO.N,Net-(D5-DOUT)*%
X-94320000Y43102000D03*
%TO.P,D5,3,VSS*%
%TO.N,GND*%
X-99220000Y43102000D03*
%TO.P,D5,4,DIN*%
%TO.N,Net-(D4-DOUT)*%
X-99220000Y39802000D03*
%TD*%
%TO.P,D51,1,VDD*%
%TO.N,VDD*%
X-16341000Y1926000D03*
%TO.P,D51,2,DOUT*%
%TO.N,Net-(D51-DOUT)*%
X-16341000Y5226000D03*
%TO.P,D51,3,VSS*%
%TO.N,GND*%
X-21241000Y5226000D03*
%TO.P,D51,4,DIN*%
%TO.N,Net-(D50-DOUT)*%
X-21241000Y1926000D03*
%TD*%
%TO.P,D92,1,VDD*%
%TO.N,VDD*%
X50898000Y9508000D03*
%TO.P,D92,2,DOUT*%
%TO.N,Net-(D92-DOUT)*%
X50898000Y12808000D03*
%TO.P,D92,3,VSS*%
%TO.N,GND*%
X45998000Y12808000D03*
%TO.P,D92,4,DIN*%
%TO.N,Net-(D91-DOUT)*%
X45998000Y9508000D03*
%TD*%
%TO.P,D52,1,VDD*%
%TO.N,VDD*%
X-16341000Y9508000D03*
%TO.P,D52,2,DOUT*%
%TO.N,Net-(D52-DOUT)*%
X-16341000Y12808000D03*
%TO.P,D52,3,VSS*%
%TO.N,GND*%
X-21241000Y12808000D03*
%TO.P,D52,4,DIN*%
%TO.N,Net-(D51-DOUT)*%
X-21241000Y9508000D03*
%TD*%
%TO.P,D30,1,VDD*%
%TO.N,VDD*%
X-61167000Y24654000D03*
%TO.P,D30,2,DOUT*%
%TO.N,Net-(D30-DOUT)*%
X-61167000Y27954000D03*
%TO.P,D30,3,VSS*%
%TO.N,GND*%
X-66067000Y27954000D03*
%TO.P,D30,4,DIN*%
%TO.N,Net-(D29-DOUT)*%
X-66067000Y24654000D03*
%TD*%
%TO.P,D68,1,VDD*%
%TO.N,VDD*%
X13543000Y9508000D03*
%TO.P,D68,2,DOUT*%
%TO.N,Net-(D68-DOUT)*%
X13543000Y12808000D03*
%TO.P,D68,3,VSS*%
%TO.N,GND*%
X8643000Y12808000D03*
%TO.P,D68,4,DIN*%
%TO.N,Net-(D67-DOUT)*%
X8643000Y9508000D03*
%TD*%
%TO.P,D56,1,VDD*%
%TO.N,VDD*%
X-8870000Y9508000D03*
%TO.P,D56,2,DOUT*%
%TO.N,Net-(D56-DOUT)*%
X-8870000Y12808000D03*
%TO.P,D56,3,VSS*%
%TO.N,GND*%
X-13770000Y12808000D03*
%TO.P,D56,4,DIN*%
%TO.N,Net-(D55-DOUT)*%
X-13770000Y9508000D03*
%TD*%
%TO.P,D21,1,VDD*%
%TO.N,VDD*%
X-76109000Y24654000D03*
%TO.P,D21,2,DOUT*%
%TO.N,Net-(D21-DOUT)*%
X-76109000Y27954000D03*
%TO.P,D21,3,VSS*%
%TO.N,GND*%
X-81009000Y27954000D03*
%TO.P,D21,4,DIN*%
%TO.N,Net-(D20-DOUT)*%
X-81009000Y24654000D03*
%TD*%
%TO.P,D88,1,VDD*%
%TO.N,VDD*%
X43427000Y17078000D03*
%TO.P,D88,2,DOUT*%
%TO.N,Net-(D88-DOUT)*%
X43427000Y20378000D03*
%TO.P,D88,3,VSS*%
%TO.N,GND*%
X38527000Y20378000D03*
%TO.P,D88,4,DIN*%
%TO.N,Net-(D87-DOUT)*%
X38527000Y17078000D03*
%TD*%
%TO.P,D8,1,VDD*%
%TO.N,VDD*%
X-91051000Y17078000D03*
%TO.P,D8,2,DOUT*%
%TO.N,Net-(D8-DOUT)*%
X-91051000Y20378000D03*
%TO.P,D8,3,VSS*%
%TO.N,GND*%
X-95951000Y20378000D03*
%TO.P,D8,4,DIN*%
%TO.N,Net-(D7-DOUT)*%
X-95951000Y17078000D03*
%TD*%
%TO.P,D40,1,VDD*%
%TO.N,VDD*%
X-38754000Y9508000D03*
%TO.P,D40,2,DOUT*%
%TO.N,Net-(D40-DOUT)*%
X-38754000Y12808000D03*
%TO.P,D40,3,VSS*%
%TO.N,GND*%
X-43654000Y12808000D03*
%TO.P,D40,4,DIN*%
%TO.N,Net-(D39-DOUT)*%
X-43654000Y9508000D03*
%TD*%
%TO.P,D39,1,VDD*%
%TO.N,VDD*%
X-38754000Y1926000D03*
%TO.P,D39,2,DOUT*%
%TO.N,Net-(D39-DOUT)*%
X-38754000Y5226000D03*
%TO.P,D39,3,VSS*%
%TO.N,GND*%
X-43654000Y5226000D03*
%TO.P,D39,4,DIN*%
%TO.N,Net-(D38-DOUT)*%
X-43654000Y1926000D03*
%TD*%
%TO.P,D62,1,VDD*%
%TO.N,VDD*%
X-1399000Y24654000D03*
%TO.P,D62,2,DOUT*%
%TO.N,Net-(D62-DOUT)*%
X-1399000Y27954000D03*
%TO.P,D62,3,VSS*%
%TO.N,GND*%
X-6299000Y27954000D03*
%TO.P,D62,4,DIN*%
%TO.N,Net-(D61-DOUT)*%
X-6299000Y24654000D03*
%TD*%
%TO.P,D91,1,VDD*%
%TO.N,VDD*%
X38126000Y39802000D03*
%TO.P,D91,2,DOUT*%
%TO.N,Net-(D91-DOUT)*%
X38126000Y43102000D03*
%TO.P,D91,3,VSS*%
%TO.N,GND*%
X33226000Y43102000D03*
%TO.P,D91,4,DIN*%
%TO.N,Net-(D90-DOUT)*%
X33226000Y39802000D03*
%TD*%
%TO.P,D58,1,VDD*%
%TO.N,VDD*%
X-8870000Y24654000D03*
%TO.P,D58,2,DOUT*%
%TO.N,Net-(D58-DOUT)*%
X-8870000Y27954000D03*
%TO.P,D58,3,VSS*%
%TO.N,GND*%
X-13770000Y27954000D03*
%TO.P,D58,4,DIN*%
%TO.N,Net-(D57-DOUT)*%
X-13770000Y24654000D03*
%TD*%
%TO.P,D42,1,VDD*%
%TO.N,VDD*%
X-38754000Y24654000D03*
%TO.P,D42,2,DOUT*%
%TO.N,Net-(D42-DOUT)*%
X-38754000Y27954000D03*
%TO.P,D42,3,VSS*%
%TO.N,GND*%
X-43654000Y27954000D03*
%TO.P,D42,4,DIN*%
%TO.N,Net-(D41-DOUT)*%
X-43654000Y24654000D03*
%TD*%
%TO.P,D73,1,VDD*%
%TO.N,VDD*%
X21014000Y17078000D03*
%TO.P,D73,2,DOUT*%
%TO.N,Net-(D73-DOUT)*%
X21014000Y20378000D03*
%TO.P,D73,3,VSS*%
%TO.N,GND*%
X16114000Y20378000D03*
%TO.P,D73,4,DIN*%
%TO.N,Net-(D72-DOUT)*%
X16114000Y17078000D03*
%TD*%
%TO.P,D54,1,VDD*%
%TO.N,VDD*%
X-16341000Y24654000D03*
%TO.P,D54,2,DOUT*%
%TO.N,Net-(D54-DOUT)*%
X-16341000Y27954000D03*
%TO.P,D54,3,VSS*%
%TO.N,GND*%
X-21241000Y27954000D03*
%TO.P,D54,4,DIN*%
%TO.N,Net-(D53-DOUT)*%
X-21241000Y24654000D03*
%TD*%
%TO.P,D81,1,VDD*%
%TO.N,VDD*%
X35956000Y9508000D03*
%TO.P,D81,2,DOUT*%
%TO.N,Net-(D81-DOUT)*%
X35956000Y12808000D03*
%TO.P,D81,3,VSS*%
%TO.N,GND*%
X31056000Y12808000D03*
%TO.P,D81,4,DIN*%
%TO.N,Net-(D80-DOUT)*%
X31056000Y9508000D03*
%TD*%
%TO.P,D7,1,VDD*%
%TO.N,VDD*%
X-91051000Y9508000D03*
%TO.P,D7,2,DOUT*%
%TO.N,Net-(D7-DOUT)*%
X-91051000Y12808000D03*
%TO.P,D7,3,VSS*%
%TO.N,GND*%
X-95951000Y12808000D03*
%TO.P,D7,4,DIN*%
%TO.N,Net-(D6-DOUT)*%
X-95951000Y9508000D03*
%TD*%
%TO.P,D86,1,VDD*%
%TO.N,VDD*%
X43427000Y1926000D03*
%TO.P,D86,2,DOUT*%
%TO.N,Net-(D86-DOUT)*%
X43427000Y5226000D03*
%TO.P,D86,3,VSS*%
%TO.N,GND*%
X38527000Y5226000D03*
%TO.P,D86,4,DIN*%
%TO.N,Net-(D85-DOUT)*%
X38527000Y1926000D03*
%TD*%
%TO.P,D76,1,VDD*%
%TO.N,VDD*%
X28485000Y9508000D03*
%TO.P,D76,2,DOUT*%
%TO.N,Net-(D76-DOUT)*%
X28485000Y12808000D03*
%TO.P,D76,3,VSS*%
%TO.N,GND*%
X23585000Y12808000D03*
%TO.P,D76,4,DIN*%
%TO.N,Net-(D75-DOUT)*%
X23585000Y9508000D03*
%TD*%
%TO.P,D45,1,VDD*%
%TO.N,VDD*%
X-31283000Y17078000D03*
%TO.P,D45,2,DOUT*%
%TO.N,Net-(D45-DOUT)*%
X-31283000Y20378000D03*
%TO.P,D45,3,VSS*%
%TO.N,GND*%
X-36183000Y20378000D03*
%TO.P,D45,4,DIN*%
%TO.N,Net-(D44-DOUT)*%
X-36183000Y17078000D03*
%TD*%
%TO.P,D9,1,VDD*%
%TO.N,VDD*%
X-91051000Y24654000D03*
%TO.P,D9,2,DOUT*%
%TO.N,Net-(D10-DIN)*%
X-91051000Y27954000D03*
%TO.P,D9,3,VSS*%
%TO.N,GND*%
X-95951000Y27954000D03*
%TO.P,D9,4,DIN*%
%TO.N,Net-(D8-DOUT)*%
X-95951000Y24654000D03*
%TD*%
%TO.P,D46,1,VDD*%
%TO.N,VDD*%
X-31283000Y24654000D03*
%TO.P,D46,2,DOUT*%
%TO.N,Net-(D46-DOUT)*%
X-31283000Y27954000D03*
%TO.P,D46,3,VSS*%
%TO.N,GND*%
X-36183000Y27954000D03*
%TO.P,D46,4,DIN*%
%TO.N,Net-(D45-DOUT)*%
X-36183000Y24654000D03*
%TD*%
%TO.P,D53,1,VDD*%
%TO.N,VDD*%
X-16341000Y17078000D03*
%TO.P,D53,2,DOUT*%
%TO.N,Net-(D53-DOUT)*%
X-16341000Y20378000D03*
%TO.P,D53,3,VSS*%
%TO.N,GND*%
X-21241000Y20378000D03*
%TO.P,D53,4,DIN*%
%TO.N,Net-(D52-DOUT)*%
X-21241000Y17078000D03*
%TD*%
%TO.P,D2,1,VDD*%
%TO.N,VDD*%
X-98522000Y17078000D03*
%TO.P,D2,2,DOUT*%
%TO.N,Net-(D2-DOUT)*%
X-98522000Y20378000D03*
%TO.P,D2,3,VSS*%
%TO.N,GND*%
X-103422000Y20378000D03*
%TO.P,D2,4,DIN*%
%TO.N,Net-(D1-DOUT)*%
X-103422000Y17078000D03*
%TD*%
%TO.P,D57,1,VDD*%
%TO.N,VDD*%
X-8870000Y17078000D03*
%TO.P,D57,2,DOUT*%
%TO.N,Net-(D57-DOUT)*%
X-8870000Y20378000D03*
%TO.P,D57,3,VSS*%
%TO.N,GND*%
X-13770000Y20378000D03*
%TO.P,D57,4,DIN*%
%TO.N,Net-(D56-DOUT)*%
X-13770000Y17078000D03*
%TD*%
%TO.P,D36,1,VDD*%
%TO.N,VDD*%
X-46225000Y9508000D03*
%TO.P,D36,2,DOUT*%
%TO.N,Net-(D36-DOUT)*%
X-46225000Y12808000D03*
%TO.P,D36,3,VSS*%
%TO.N,GND*%
X-51125000Y12808000D03*
%TO.P,D36,4,DIN*%
%TO.N,Net-(D35-DOUT)*%
X-51125000Y9508000D03*
%TD*%
%TO.P,D69,1,VDD*%
%TO.N,VDD*%
X13543000Y17078000D03*
%TO.P,D69,2,DOUT*%
%TO.N,Net-(D69-DOUT)*%
X13543000Y20378000D03*
%TO.P,D69,3,VSS*%
%TO.N,GND*%
X8643000Y20378000D03*
%TO.P,D69,4,DIN*%
%TO.N,Net-(D68-DOUT)*%
X8643000Y17078000D03*
%TD*%
%TO.P,D82,1,VDD*%
%TO.N,VDD*%
X35956000Y17078000D03*
%TO.P,D82,2,DOUT*%
%TO.N,Net-(D82-DOUT)*%
X35956000Y20378000D03*
%TO.P,D82,3,VSS*%
%TO.N,GND*%
X31056000Y20378000D03*
%TO.P,D82,4,DIN*%
%TO.N,Net-(D81-DOUT)*%
X31056000Y17078000D03*
%TD*%
%TO.P,D19,1,VDD*%
%TO.N,VDD*%
X-76109000Y9508000D03*
%TO.P,D19,2,DOUT*%
%TO.N,Net-(D19-DOUT)*%
X-76109000Y12808000D03*
%TO.P,D19,3,VSS*%
%TO.N,GND*%
X-81009000Y12808000D03*
%TO.P,D19,4,DIN*%
%TO.N,Net-(D18-DOUT)*%
X-81009000Y9508000D03*
%TD*%
%TO.P,D23,1,VDD*%
%TO.N,VDD*%
X-68638000Y1926000D03*
%TO.P,D23,2,DOUT*%
%TO.N,Net-(D23-DOUT)*%
X-68638000Y5226000D03*
%TO.P,D23,3,VSS*%
%TO.N,GND*%
X-73538000Y5226000D03*
%TO.P,D23,4,DIN*%
%TO.N,Net-(D22-DOUT)*%
X-73538000Y1926000D03*
%TD*%
%TO.P,D60,1,VDD*%
%TO.N,VDD*%
X-1399000Y9508000D03*
%TO.P,D60,2,DOUT*%
%TO.N,Net-(D60-DOUT)*%
X-1399000Y12808000D03*
%TO.P,D60,3,VSS*%
%TO.N,GND*%
X-6299000Y12808000D03*
%TO.P,D60,4,DIN*%
%TO.N,Net-(D59-DOUT)*%
X-6299000Y9508000D03*
%TD*%
%TO.P,D6,1,VDD*%
%TO.N,VDD*%
X-91051000Y1926000D03*
%TO.P,D6,2,DOUT*%
%TO.N,Net-(D6-DOUT)*%
X-91051000Y5226000D03*
%TO.P,D6,3,VSS*%
%TO.N,GND*%
X-95951000Y5226000D03*
%TO.P,D6,4,DIN*%
%TO.N,Net-(D5-DOUT)*%
X-95951000Y1926000D03*
%TD*%
%TO.P,D1,1,VDD*%
%TO.N,VDD*%
X-98522000Y9508000D03*
%TO.P,D1,2,DOUT*%
%TO.N,Net-(D1-DOUT)*%
X-98522000Y12808000D03*
%TO.P,D1,3,VSS*%
%TO.N,GND*%
X-103422000Y12808000D03*
%TO.P,D1,4,DIN*%
%TO.N,DIN*%
X-103422000Y9508000D03*
%TD*%
%TO.P,D10,1,VDD*%
%TO.N,VDD*%
X-91051000Y32227000D03*
%TO.P,D10,2,DOUT*%
%TO.N,Net-(D10-DOUT)*%
X-91051000Y35527000D03*
%TO.P,D10,3,VSS*%
%TO.N,GND*%
X-95951000Y35527000D03*
%TO.P,D10,4,DIN*%
%TO.N,Net-(D10-DIN)*%
X-95951000Y32227000D03*
%TD*%
%TO.P,D41,1,VDD*%
%TO.N,VDD*%
X-38754000Y17078000D03*
%TO.P,D41,2,DOUT*%
%TO.N,Net-(D41-DOUT)*%
X-38754000Y20378000D03*
%TO.P,D41,3,VSS*%
%TO.N,GND*%
X-43654000Y20378000D03*
%TO.P,D41,4,DIN*%
%TO.N,Net-(D40-DOUT)*%
X-43654000Y17078000D03*
%TD*%
%TO.P,D11,1,VDD*%
%TO.N,VDD*%
X-86849000Y39802000D03*
%TO.P,D11,2,DOUT*%
%TO.N,Net-(D11-DOUT)*%
X-86849000Y43102000D03*
%TO.P,D11,3,VSS*%
%TO.N,GND*%
X-91749000Y43102000D03*
%TO.P,D11,4,DIN*%
%TO.N,Net-(D10-DOUT)*%
X-91749000Y39802000D03*
%TD*%
%TO.P,D75,1,VDD*%
%TO.N,VDD*%
X28485000Y1926000D03*
%TO.P,D75,2,DOUT*%
%TO.N,Net-(D75-DOUT)*%
X28485000Y5226000D03*
%TO.P,D75,3,VSS*%
%TO.N,GND*%
X23585000Y5226000D03*
%TO.P,D75,4,DIN*%
%TO.N,Net-(D74-DOUT)*%
X23585000Y1926000D03*
%TD*%
%TO.P,D25,1,VDD*%
%TO.N,VDD*%
X-68638000Y17078000D03*
%TO.P,D25,2,DOUT*%
%TO.N,Net-(D25-DOUT)*%
X-68638000Y20378000D03*
%TO.P,D25,3,VSS*%
%TO.N,GND*%
X-73538000Y20378000D03*
%TO.P,D25,4,DIN*%
%TO.N,Net-(D24-DOUT)*%
X-73538000Y17078000D03*
%TD*%
%TO.P,D31,1,VDD*%
%TO.N,VDD*%
X-53696000Y1926000D03*
%TO.P,D31,2,DOUT*%
%TO.N,Net-(D31-DOUT)*%
X-53696000Y5226000D03*
%TO.P,D31,3,VSS*%
%TO.N,GND*%
X-58596000Y5226000D03*
%TO.P,D31,4,DIN*%
%TO.N,Net-(D30-DOUT)*%
X-58596000Y1926000D03*
%TD*%
%TO.P,D67,1,VDD*%
%TO.N,VDD*%
X13543000Y1926000D03*
%TO.P,D67,2,DOUT*%
%TO.N,Net-(D67-DOUT)*%
X13543000Y5226000D03*
%TO.P,D67,3,VSS*%
%TO.N,GND*%
X8643000Y5226000D03*
%TO.P,D67,4,DIN*%
%TO.N,Net-(D66-DOUT)*%
X8643000Y1926000D03*
%TD*%
%TO.P,D32,1,VDD*%
%TO.N,VDD*%
X-53696000Y9508000D03*
%TO.P,D32,2,DOUT*%
%TO.N,Net-(D32-DOUT)*%
X-53696000Y12808000D03*
%TO.P,D32,3,VSS*%
%TO.N,GND*%
X-58596000Y12808000D03*
%TO.P,D32,4,DIN*%
%TO.N,Net-(D31-DOUT)*%
X-58596000Y9508000D03*
%TD*%
%TO.P,D63,1,VDD*%
%TO.N,VDD*%
X6072000Y1926000D03*
%TO.P,D63,2,DOUT*%
%TO.N,Net-(D63-DOUT)*%
X6072000Y5226000D03*
%TO.P,D63,3,VSS*%
%TO.N,GND*%
X1172000Y5226000D03*
%TO.P,D63,4,DIN*%
%TO.N,Net-(D62-DOUT)*%
X1172000Y1926000D03*
%TD*%
%TO.P,D43,1,VDD*%
%TO.N,VDD*%
X-31283000Y1926000D03*
%TO.P,D43,2,DOUT*%
%TO.N,Net-(D43-DOUT)*%
X-31283000Y5226000D03*
%TO.P,D43,3,VSS*%
%TO.N,GND*%
X-36183000Y5226000D03*
%TO.P,D43,4,DIN*%
%TO.N,Net-(D42-DOUT)*%
X-36183000Y1926000D03*
%TD*%
%TO.P,D95,1,VDD*%
%TO.N,VDD*%
X50898000Y32227000D03*
%TO.P,D95,2,DOUT*%
%TO.N,Net-(D95-DOUT)*%
X50898000Y35527000D03*
%TO.P,D95,3,VSS*%
%TO.N,GND*%
X45998000Y35527000D03*
%TO.P,D95,4,DIN*%
%TO.N,Net-(D94-DOUT)*%
X45998000Y32227000D03*
%TD*%
%TO.P,D16,1,VDD*%
%TO.N,VDD*%
X-83580000Y32227000D03*
%TO.P,D16,2,DOUT*%
%TO.N,Net-(D16-DOUT)*%
X-83580000Y35527000D03*
%TO.P,D16,3,VSS*%
%TO.N,GND*%
X-88480000Y35527000D03*
%TO.P,D16,4,DIN*%
%TO.N,Net-(D15-DOUT)*%
X-88480000Y32227000D03*
%TD*%
%TO.P,D47,1,VDD*%
%TO.N,VDD*%
X-23812000Y1926000D03*
%TO.P,D47,2,DOUT*%
%TO.N,Net-(D47-DOUT)*%
X-23812000Y5226000D03*
%TO.P,D47,3,VSS*%
%TO.N,GND*%
X-28712000Y5226000D03*
%TO.P,D47,4,DIN*%
%TO.N,Net-(D46-DOUT)*%
X-28712000Y1926000D03*
%TD*%
%TO.P,D66,1,VDD*%
%TO.N,VDD*%
X6072000Y24654000D03*
%TO.P,D66,2,DOUT*%
%TO.N,Net-(D66-DOUT)*%
X6072000Y27954000D03*
%TO.P,D66,3,VSS*%
%TO.N,GND*%
X1172000Y27954000D03*
%TO.P,D66,4,DIN*%
%TO.N,Net-(D65-DOUT)*%
X1172000Y24654000D03*
%TD*%
%TO.P,D84,1,VDD*%
%TO.N,VDD*%
X35956000Y32227000D03*
%TO.P,D84,2,DOUT*%
%TO.N,Net-(D84-DOUT)*%
X35956000Y35527000D03*
%TO.P,D84,3,VSS*%
%TO.N,GND*%
X31056000Y35527000D03*
%TO.P,D84,4,DIN*%
%TO.N,Net-(D83-DOUT)*%
X31056000Y32227000D03*
%TD*%
%TO.P,D70,1,VDD*%
%TO.N,VDD*%
X13543000Y24654000D03*
%TO.P,D70,2,DOUT*%
%TO.N,Net-(D70-DOUT)*%
X13543000Y27954000D03*
%TO.P,D70,3,VSS*%
%TO.N,GND*%
X8643000Y27954000D03*
%TO.P,D70,4,DIN*%
%TO.N,Net-(D69-DOUT)*%
X8643000Y24654000D03*
%TD*%
%TO.P,D87,1,VDD*%
%TO.N,VDD*%
X43427000Y9508000D03*
%TO.P,D87,2,DOUT*%
%TO.N,Net-(D87-DOUT)*%
X43427000Y12808000D03*
%TO.P,D87,3,VSS*%
%TO.N,GND*%
X38527000Y12808000D03*
%TO.P,D87,4,DIN*%
%TO.N,Net-(D86-DOUT)*%
X38527000Y9508000D03*
%TD*%
%TO.P,D55,1,VDD*%
%TO.N,VDD*%
X-8870000Y1926000D03*
%TO.P,D55,2,DOUT*%
%TO.N,Net-(D55-DOUT)*%
X-8870000Y5226000D03*
%TO.P,D55,3,VSS*%
%TO.N,GND*%
X-13770000Y5226000D03*
%TO.P,D55,4,DIN*%
%TO.N,Net-(D54-DOUT)*%
X-13770000Y1926000D03*
%TD*%
%TO.P,D14,1,VDD*%
%TO.N,VDD*%
X-83580000Y17078000D03*
%TO.P,D14,2,DOUT*%
%TO.N,Net-(D14-DOUT)*%
X-83580000Y20378000D03*
%TO.P,D14,3,VSS*%
%TO.N,GND*%
X-88480000Y20378000D03*
%TO.P,D14,4,DIN*%
%TO.N,Net-(D13-DOUT)*%
X-88480000Y17078000D03*
%TD*%
%TO.P,D33,1,VDD*%
%TO.N,VDD*%
X-53696000Y17078000D03*
%TO.P,D33,2,DOUT*%
%TO.N,Net-(D33-DOUT)*%
X-53696000Y20378000D03*
%TO.P,D33,3,VSS*%
%TO.N,GND*%
X-58596000Y20378000D03*
%TO.P,D33,4,DIN*%
%TO.N,Net-(D32-DOUT)*%
X-58596000Y17078000D03*
%TD*%
%TO.P,D15,1,VDD*%
%TO.N,VDD*%
X-83580000Y24654000D03*
%TO.P,D15,2,DOUT*%
%TO.N,Net-(D15-DOUT)*%
X-83580000Y27954000D03*
%TO.P,D15,3,VSS*%
%TO.N,GND*%
X-88480000Y27954000D03*
%TO.P,D15,4,DIN*%
%TO.N,Net-(D14-DOUT)*%
X-88480000Y24654000D03*
%TD*%
%TO.P,D74,1,VDD*%
%TO.N,VDD*%
X21014000Y24654000D03*
%TO.P,D74,2,DOUT*%
%TO.N,Net-(D74-DOUT)*%
X21014000Y27954000D03*
%TO.P,D74,3,VSS*%
%TO.N,GND*%
X16114000Y27954000D03*
%TO.P,D74,4,DIN*%
%TO.N,Net-(D73-DOUT)*%
X16114000Y24654000D03*
%TD*%
%TO.P,D85,1,VDD*%
%TO.N,VDD*%
X30655000Y39802000D03*
%TO.P,D85,2,DOUT*%
%TO.N,Net-(D85-DOUT)*%
X30655000Y43102000D03*
%TO.P,D85,3,VSS*%
%TO.N,GND*%
X25755000Y43102000D03*
%TO.P,D85,4,DIN*%
%TO.N,Net-(D84-DOUT)*%
X25755000Y39802000D03*
%TD*%
%TO.P,D93,1,VDD*%
%TO.N,VDD*%
X50898000Y17078000D03*
%TO.P,D93,2,DOUT*%
%TO.N,Net-(D93-DOUT)*%
X50898000Y20378000D03*
%TO.P,D93,3,VSS*%
%TO.N,GND*%
X45998000Y20378000D03*
%TO.P,D93,4,DIN*%
%TO.N,Net-(D92-DOUT)*%
X45998000Y17078000D03*
%TD*%
%TO.P,D77,1,VDD*%
%TO.N,VDD*%
X28485000Y17078000D03*
%TO.P,D77,2,DOUT*%
%TO.N,Net-(D77-DOUT)*%
X28485000Y20378000D03*
%TO.P,D77,3,VSS*%
%TO.N,GND*%
X23585000Y20378000D03*
%TO.P,D77,4,DIN*%
%TO.N,Net-(D76-DOUT)*%
X23585000Y17078000D03*
%TD*%
%TO.P,D4,1,VDD*%
%TO.N,VDD*%
X-98522000Y32227000D03*
%TO.P,D4,2,DOUT*%
%TO.N,Net-(D4-DOUT)*%
X-98522000Y35527000D03*
%TO.P,D4,3,VSS*%
%TO.N,GND*%
X-103422000Y35527000D03*
%TO.P,D4,4,DIN*%
%TO.N,Net-(D3-DOUT)*%
X-103422000Y32227000D03*
%TD*%
%TO.P,D18,1,VDD*%
%TO.N,VDD*%
X-76109000Y1926000D03*
%TO.P,D18,2,DOUT*%
%TO.N,Net-(D18-DOUT)*%
X-76109000Y5226000D03*
%TO.P,D18,3,VSS*%
%TO.N,GND*%
X-81009000Y5226000D03*
%TO.P,D18,4,DIN*%
%TO.N,Net-(D17-DOUT)*%
X-81009000Y1926000D03*
%TD*%
%TO.P,D20,1,VDD*%
%TO.N,VDD*%
X-76109000Y17078000D03*
%TO.P,D20,2,DOUT*%
%TO.N,Net-(D20-DOUT)*%
X-76109000Y20378000D03*
%TO.P,D20,3,VSS*%
%TO.N,GND*%
X-81009000Y20378000D03*
%TO.P,D20,4,DIN*%
%TO.N,Net-(D19-DOUT)*%
X-81009000Y17078000D03*
%TD*%
%TO.P,D50,1,VDD*%
%TO.N,VDD*%
X-23812000Y24654000D03*
%TO.P,D50,2,DOUT*%
%TO.N,Net-(D50-DOUT)*%
X-23812000Y27954000D03*
%TO.P,D50,3,VSS*%
%TO.N,GND*%
X-28712000Y27954000D03*
%TO.P,D50,4,DIN*%
%TO.N,Net-(D49-DOUT)*%
X-28712000Y24654000D03*
%TD*%
%TO.P,D17,1,VDD*%
%TO.N,VDD*%
X-79380000Y39802000D03*
%TO.P,D17,2,DOUT*%
%TO.N,Net-(D17-DOUT)*%
X-79380000Y43102000D03*
%TO.P,D17,3,VSS*%
%TO.N,GND*%
X-84280000Y43102000D03*
%TO.P,D17,4,DIN*%
%TO.N,Net-(D16-DOUT)*%
X-84280000Y39802000D03*
%TD*%
%TO.P,D26,1,VDD*%
%TO.N,VDD*%
X-68638000Y24654000D03*
%TO.P,D26,2,DOUT*%
%TO.N,Net-(D26-DOUT)*%
X-68638000Y27954000D03*
%TO.P,D26,3,VSS*%
%TO.N,GND*%
X-73538000Y27954000D03*
%TO.P,D26,4,DIN*%
%TO.N,Net-(D25-DOUT)*%
X-73538000Y24654000D03*
%TD*%
%TO.P,D44,1,VDD*%
%TO.N,VDD*%
X-31283000Y9508000D03*
%TO.P,D44,2,DOUT*%
%TO.N,Net-(D44-DOUT)*%
X-31283000Y12808000D03*
%TO.P,D44,3,VSS*%
%TO.N,GND*%
X-36183000Y12808000D03*
%TO.P,D44,4,DIN*%
%TO.N,Net-(D43-DOUT)*%
X-36183000Y9508000D03*
%TD*%
%TO.P,D59,1,VDD*%
%TO.N,VDD*%
X-1399000Y1926000D03*
%TO.P,D59,2,DOUT*%
%TO.N,Net-(D59-DOUT)*%
X-1399000Y5226000D03*
%TO.P,D59,3,VSS*%
%TO.N,GND*%
X-6299000Y5226000D03*
%TO.P,D59,4,DIN*%
%TO.N,Net-(D58-DOUT)*%
X-6299000Y1926000D03*
%TD*%
%TO.P,D80,1,VDD*%
%TO.N,VDD*%
X35956000Y1926000D03*
%TO.P,D80,2,DOUT*%
%TO.N,Net-(D80-DOUT)*%
X35956000Y5226000D03*
%TO.P,D80,3,VSS*%
%TO.N,GND*%
X31056000Y5226000D03*
%TO.P,D80,4,DIN*%
%TO.N,Net-(D79-DOUT)*%
X31056000Y1926000D03*
%TD*%
%TO.P,D24,1,VDD*%
%TO.N,VDD*%
X-68638000Y9508000D03*
%TO.P,D24,2,DOUT*%
%TO.N,Net-(D24-DOUT)*%
X-68638000Y12808000D03*
%TO.P,D24,3,VSS*%
%TO.N,GND*%
X-73538000Y12808000D03*
%TO.P,D24,4,DIN*%
%TO.N,Net-(D23-DOUT)*%
X-73538000Y9508000D03*
%TD*%
%TO.P,D38,1,VDD*%
%TO.N,VDD*%
X-46225000Y24654000D03*
%TO.P,D38,2,DOUT*%
%TO.N,Net-(D38-DOUT)*%
X-46225000Y27954000D03*
%TO.P,D38,3,VSS*%
%TO.N,GND*%
X-51125000Y27954000D03*
%TO.P,D38,4,DIN*%
%TO.N,Net-(D37-DOUT)*%
X-51125000Y24654000D03*
%TD*%
%TO.P,D37,1,VDD*%
%TO.N,VDD*%
X-46225000Y17078000D03*
%TO.P,D37,2,DOUT*%
%TO.N,Net-(D37-DOUT)*%
X-46225000Y20378000D03*
%TO.P,D37,3,VSS*%
%TO.N,GND*%
X-51125000Y20378000D03*
%TO.P,D37,4,DIN*%
%TO.N,Net-(D36-DOUT)*%
X-51125000Y17078000D03*
%TD*%
%TO.P,D90,1,VDD*%
%TO.N,VDD*%
X43427000Y32227000D03*
%TO.P,D90,2,DOUT*%
%TO.N,Net-(D90-DOUT)*%
X43427000Y35527000D03*
%TO.P,D90,3,VSS*%
%TO.N,GND*%
X38527000Y35527000D03*
%TO.P,D90,4,DIN*%
%TO.N,Net-(D89-DOUT)*%
X38527000Y32227000D03*
%TD*%
%TO.P,D65,1,VDD*%
%TO.N,VDD*%
X6072000Y17078000D03*
%TO.P,D65,2,DOUT*%
%TO.N,Net-(D65-DOUT)*%
X6072000Y20378000D03*
%TO.P,D65,3,VSS*%
%TO.N,GND*%
X1172000Y20378000D03*
%TO.P,D65,4,DIN*%
%TO.N,Net-(D64-DOUT)*%
X1172000Y17078000D03*
%TD*%
%TO.P,D78,1,VDD*%
%TO.N,VDD*%
X28485000Y24654000D03*
%TO.P,D78,2,DOUT*%
%TO.N,Net-(D78-DOUT)*%
X28485000Y27954000D03*
%TO.P,D78,3,VSS*%
%TO.N,GND*%
X23585000Y27954000D03*
%TO.P,D78,4,DIN*%
%TO.N,Net-(D77-DOUT)*%
X23585000Y24654000D03*
%TD*%
%TO.P,D96,1,VDD*%
%TO.N,VDD*%
X45597000Y39802000D03*
%TO.P,D96,2,DOUT*%
%TO.N,unconnected-(D96-DOUT-Pad2)*%
X45597000Y43102000D03*
%TO.P,D96,3,VSS*%
%TO.N,GND*%
X40697000Y43102000D03*
%TO.P,D96,4,DIN*%
%TO.N,Net-(D95-DOUT)*%
X40697000Y39802000D03*
%TD*%
%TO.P,D83,1,VDD*%
%TO.N,VDD*%
X35956000Y24654000D03*
%TO.P,D83,2,DOUT*%
%TO.N,Net-(D83-DOUT)*%
X35956000Y27954000D03*
%TO.P,D83,3,VSS*%
%TO.N,GND*%
X31056000Y27954000D03*
%TO.P,D83,4,DIN*%
%TO.N,Net-(D82-DOUT)*%
X31056000Y24654000D03*
%TD*%
%TO.P,D29,1,VDD*%
%TO.N,VDD*%
X-61167000Y17078000D03*
%TO.P,D29,2,DOUT*%
%TO.N,Net-(D29-DOUT)*%
X-61167000Y20378000D03*
%TO.P,D29,3,VSS*%
%TO.N,GND*%
X-66067000Y20378000D03*
%TO.P,D29,4,DIN*%
%TO.N,Net-(D28-DOUT)*%
X-66067000Y17078000D03*
%TD*%
%TO.P,D22,1,VDD*%
%TO.N,VDD*%
X-76109000Y32227000D03*
%TO.P,D22,2,DOUT*%
%TO.N,Net-(D22-DOUT)*%
X-76109000Y35527000D03*
%TO.P,D22,3,VSS*%
%TO.N,GND*%
X-81009000Y35527000D03*
%TO.P,D22,4,DIN*%
%TO.N,Net-(D21-DOUT)*%
X-81009000Y32227000D03*
%TD*%
%TO.P,D64,1,VDD*%
%TO.N,VDD*%
X6072000Y9508000D03*
%TO.P,D64,2,DOUT*%
%TO.N,Net-(D64-DOUT)*%
X6072000Y12808000D03*
%TO.P,D64,3,VSS*%
%TO.N,GND*%
X1172000Y12808000D03*
%TO.P,D64,4,DIN*%
%TO.N,Net-(D63-DOUT)*%
X1172000Y9508000D03*
%TD*%
%TO.P,D34,1,VDD*%
%TO.N,VDD*%
X-53696000Y24654000D03*
%TO.P,D34,2,DOUT*%
%TO.N,Net-(D34-DOUT)*%
X-53696000Y27954000D03*
%TO.P,D34,3,VSS*%
%TO.N,GND*%
X-58596000Y27954000D03*
%TO.P,D34,4,DIN*%
%TO.N,Net-(D33-DOUT)*%
X-58596000Y24654000D03*
%TD*%
%TO.P,D48,1,VDD*%
%TO.N,VDD*%
X-23812000Y9508000D03*
%TO.P,D48,2,DOUT*%
%TO.N,Net-(D48-DOUT)*%
X-23812000Y12808000D03*
%TO.P,D48,3,VSS*%
%TO.N,GND*%
X-28712000Y12808000D03*
%TO.P,D48,4,DIN*%
%TO.N,Net-(D47-DOUT)*%
X-28712000Y9508000D03*
%TD*%
%TO.P,D61,1,VDD*%
%TO.N,VDD*%
X-1399000Y17078000D03*
%TO.P,D61,2,DOUT*%
%TO.N,Net-(D61-DOUT)*%
X-1399000Y20378000D03*
%TO.P,D61,3,VSS*%
%TO.N,GND*%
X-6299000Y20378000D03*
%TO.P,D61,4,DIN*%
%TO.N,Net-(D60-DOUT)*%
X-6299000Y17078000D03*
%TD*%
%TO.P,D13,1,VDD*%
%TO.N,VDD*%
X-83580000Y9508000D03*
%TO.P,D13,2,DOUT*%
%TO.N,Net-(D13-DOUT)*%
X-83580000Y12808000D03*
%TO.P,D13,3,VSS*%
%TO.N,GND*%
X-88480000Y12808000D03*
%TO.P,D13,4,DIN*%
%TO.N,Net-(D12-DOUT)*%
X-88480000Y9508000D03*
%TD*%
D11*
%TO.P,J1,01,GND*%
%TO.N,GND*%
X-98742611Y2596039D03*
D12*
%TO.P,J1,02,DIN*%
%TO.N,DIN*%
X-100409000Y4513000D03*
%TO.P,J1,03,VDD*%
%TO.N,VDD*%
X-102075389Y6429961D03*
%TD*%
D13*
%TO.N,DIN*%
X-100564776Y5561492D03*
X-103422000Y9508000D03*
%TO.N,VDD*%
X50946000Y17203000D03*
X-98402000Y24705000D03*
X-79380000Y39802000D03*
X51287000Y25086000D03*
X50683000Y32355000D03*
X51284478Y31996911D03*
X45597000Y39802000D03*
X-98522000Y17078000D03*
X-76249000Y32258000D03*
X-98522000Y32227000D03*
X-98377000Y9581000D03*
X50898000Y24654000D03*
%TO.N,GND*%
X45998000Y35527000D03*
X25755000Y43102000D03*
X45402463Y28321885D03*
X-103422000Y20378000D03*
X38505000Y5074000D03*
X23797000Y35613000D03*
X-103535000Y12804000D03*
X45807000Y20410000D03*
X-103617000Y28027000D03*
X-103422000Y35527000D03*
X45998000Y12808000D03*
X45998000Y27954000D03*
%TO.N,Net-(D1-DOUT)*%
X-98528000Y12827000D03*
X-103422000Y17078000D03*
%TO.N,Net-(D2-DOUT)*%
X-98527000Y20406000D03*
X-103422000Y24654000D03*
%TO.N,Net-(D3-DOUT)*%
X-98522000Y27964000D03*
X-103422000Y32227000D03*
%TO.N,Net-(D4-DOUT)*%
X-99220000Y39802000D03*
X-98531000Y35532000D03*
%TO.N,Net-(D5-DOUT)*%
X-94306000Y43102000D03*
X-95951000Y1926000D03*
%TO.N,Net-(D6-DOUT)*%
X-91048000Y5249000D03*
X-95951000Y9508000D03*
%TO.N,Net-(D7-DOUT)*%
X-91069000Y12814000D03*
X-95951000Y17078000D03*
%TO.N,Net-(D8-DOUT)*%
X-95951000Y24654000D03*
X-91020000Y20386000D03*
%TO.N,Net-(D10-DIN)*%
X-91085000Y27955000D03*
X-95951000Y32227000D03*
%TO.N,Net-(D10-DOUT)*%
X-91749000Y39802000D03*
X-91045000Y35519000D03*
%TO.N,Net-(D11-DOUT)*%
X-86820000Y43092000D03*
X-88480000Y1926000D03*
%TO.N,Net-(D12-DOUT)*%
X-83590000Y5251000D03*
X-88480000Y9508000D03*
%TO.N,Net-(D13-DOUT)*%
X-83566000Y12783000D03*
X-88480000Y17078000D03*
%TO.N,Net-(D14-DOUT)*%
X-83567000Y20397000D03*
X-88480000Y24654000D03*
%TO.N,Net-(D15-DOUT)*%
X-83563000Y27951000D03*
X-88480000Y32227000D03*
%TO.N,Net-(D16-DOUT)*%
X-83580000Y35533000D03*
X-84280000Y39802000D03*
%TO.N,Net-(D17-DOUT)*%
X-81009000Y1926000D03*
X-79379000Y43090000D03*
%TO.N,Net-(D18-DOUT)*%
X-81009000Y9508000D03*
X-76128000Y5207000D03*
%TO.N,Net-(D19-DOUT)*%
X-76107000Y12809000D03*
X-81009000Y17078000D03*
%TO.N,Net-(D20-DOUT)*%
X-76116000Y20353000D03*
X-81009000Y24654000D03*
%TO.N,Net-(D21-DOUT)*%
X-76100000Y27961000D03*
X-81009000Y32227000D03*
%TO.N,Net-(D22-DOUT)*%
X-76074000Y35541000D03*
X-73538000Y1926000D03*
%TO.N,Net-(D23-DOUT)*%
X-68616000Y5222000D03*
X-73538000Y9508000D03*
%TO.N,Net-(D24-DOUT)*%
X-73538000Y17078000D03*
X-68631000Y12785000D03*
%TO.N,Net-(D25-DOUT)*%
X-68621000Y20366000D03*
X-73538000Y24654000D03*
%TO.N,Net-(D26-DOUT)*%
X-68595000Y27940000D03*
X-66067000Y1926000D03*
%TO.N,Net-(D27-DOUT)*%
X-61163000Y5197000D03*
X-66067000Y9508000D03*
%TO.N,Net-(D28-DOUT)*%
X-61163000Y12826000D03*
X-66067000Y17078000D03*
%TO.N,Net-(D29-DOUT)*%
X-66067000Y24654000D03*
X-61161000Y20365000D03*
%TO.N,Net-(D30-DOUT)*%
X-58596000Y1926000D03*
X-61119000Y27954000D03*
%TO.N,Net-(D31-DOUT)*%
X-53685000Y5230000D03*
X-58596000Y9508000D03*
%TO.N,Net-(D32-DOUT)*%
X-53690000Y12795000D03*
X-58596000Y17078000D03*
%TO.N,Net-(D33-DOUT)*%
X-53701000Y20385000D03*
X-58596000Y24654000D03*
%TO.N,Net-(D34-DOUT)*%
X-51125000Y1926000D03*
X-53680000Y27946000D03*
%TO.N,Net-(D35-DOUT)*%
X-46196000Y5232000D03*
X-51125000Y9508000D03*
%TO.N,Net-(D36-DOUT)*%
X-46224000Y12816000D03*
X-51125000Y17078000D03*
%TO.N,Net-(D37-DOUT)*%
X-51125000Y24654000D03*
X-46224000Y20357000D03*
%TO.N,Net-(D38-DOUT)*%
X-46201000Y27968000D03*
X-43654000Y1926000D03*
%TO.N,Net-(D39-DOUT)*%
X-38765000Y5226000D03*
X-43654000Y9508000D03*
%TO.N,Net-(D40-DOUT)*%
X-38748000Y12821000D03*
X-43654000Y17078000D03*
%TO.N,Net-(D41-DOUT)*%
X-43654000Y24654000D03*
X-38748000Y20359000D03*
%TO.N,Net-(D42-DOUT)*%
X-36183000Y1926000D03*
X-38744000Y27975000D03*
%TO.N,Net-(D43-DOUT)*%
X-31280000Y5336000D03*
X-36183000Y9508000D03*
%TO.N,Net-(D44-DOUT)*%
X-36183000Y17078000D03*
X-31280000Y12797000D03*
%TO.N,Net-(D45-DOUT)*%
X-31286000Y20356000D03*
X-36183000Y24654000D03*
%TO.N,Net-(D46-DOUT)*%
X-31260000Y27981000D03*
X-28712000Y1926000D03*
%TO.N,Net-(D47-DOUT)*%
X-28712000Y9508000D03*
X-23783000Y5235000D03*
%TO.N,Net-(D48-DOUT)*%
X-28712000Y17078000D03*
X-23802000Y12871000D03*
%TO.N,Net-(D49-DOUT)*%
X-28712000Y24654000D03*
X-23823000Y20435000D03*
%TO.N,Net-(D50-DOUT)*%
X-21241000Y1926000D03*
X-23808000Y27963000D03*
%TO.N,Net-(D51-DOUT)*%
X-21241000Y9508000D03*
X-16345000Y5220000D03*
%TO.N,Net-(D52-DOUT)*%
X-16345000Y12811000D03*
X-21241000Y17078000D03*
%TO.N,Net-(D53-DOUT)*%
X-21241000Y24654000D03*
X-16335000Y20398000D03*
%TO.N,Net-(D54-DOUT)*%
X-13770000Y1926000D03*
X-16332000Y27960000D03*
%TO.N,Net-(D55-DOUT)*%
X-8863000Y5237000D03*
X-13770000Y9508000D03*
%TO.N,Net-(D56-DOUT)*%
X-13770000Y17078000D03*
X-8872000Y12831000D03*
%TO.N,Net-(D57-DOUT)*%
X-8866000Y20377000D03*
X-13770000Y24654000D03*
%TO.N,Net-(D58-DOUT)*%
X-6299000Y1926000D03*
X-8860000Y27943000D03*
%TO.N,Net-(D59-DOUT)*%
X-1387000Y5245000D03*
X-6299000Y9508000D03*
%TO.N,Net-(D60-DOUT)*%
X-1393000Y12829000D03*
X-6299000Y17078000D03*
%TO.N,Net-(D61-DOUT)*%
X-6299000Y24654000D03*
X-1400000Y20394000D03*
%TO.N,Net-(D62-DOUT)*%
X1172000Y1926000D03*
X-1390000Y27948000D03*
%TO.N,Net-(D63-DOUT)*%
X6077000Y5248000D03*
X1172000Y9508000D03*
%TO.N,Net-(D64-DOUT)*%
X6071000Y12801000D03*
X1172000Y17078000D03*
%TO.N,Net-(D65-DOUT)*%
X1172000Y24654000D03*
X6071000Y20401000D03*
%TO.N,Net-(D66-DOUT)*%
X8643000Y1926000D03*
X6082000Y27954000D03*
%TO.N,Net-(D67-DOUT)*%
X13544000Y5240000D03*
X8643000Y9508000D03*
%TO.N,Net-(D68-DOUT)*%
X8643000Y17078000D03*
X13549000Y12816000D03*
%TO.N,Net-(D69-DOUT)*%
X8643000Y24654000D03*
X13529000Y20381000D03*
%TO.N,Net-(D70-DOUT)*%
X16114000Y1926000D03*
X13538000Y27953000D03*
%TO.N,Net-(D71-DOUT)*%
X21018000Y5240000D03*
X16114000Y9508000D03*
%TO.N,Net-(D72-DOUT)*%
X21018000Y12799000D03*
X16114000Y17078000D03*
%TO.N,Net-(D73-DOUT)*%
X21005000Y20383000D03*
X16114000Y24654000D03*
%TO.N,Net-(D74-DOUT)*%
X21010000Y27959000D03*
X23585000Y1926000D03*
%TO.N,Net-(D75-DOUT)*%
X28494000Y5228000D03*
X23585000Y9508000D03*
%TO.N,Net-(D76-DOUT)*%
X28494000Y12793000D03*
X23585000Y17078000D03*
%TO.N,Net-(D77-DOUT)*%
X28469000Y20384000D03*
X23585000Y24654000D03*
%TO.N,Net-(D78-DOUT)*%
X23585000Y32227000D03*
X28496000Y27937000D03*
%TO.N,Net-(D79-DOUT)*%
X28514000Y35517000D03*
X31056000Y1926000D03*
%TO.N,Net-(D80-DOUT)*%
X35951000Y5225000D03*
X31056000Y9508000D03*
%TO.N,Net-(D81-DOUT)*%
X35957000Y12841000D03*
X31056000Y17078000D03*
%TO.N,Net-(D82-DOUT)*%
X35951000Y20361000D03*
X31056000Y24654000D03*
%TO.N,Net-(D83-DOUT)*%
X35964000Y27946000D03*
X31056000Y32227000D03*
%TO.N,Net-(D84-DOUT)*%
X25755000Y39802000D03*
X35985000Y35686000D03*
%TO.N,Net-(D85-DOUT)*%
X38527000Y1926000D03*
X30687000Y43119000D03*
%TO.N,Net-(D86-DOUT)*%
X43420000Y5223000D03*
X38527000Y9508000D03*
%TO.N,Net-(D87-DOUT)*%
X38527000Y17078000D03*
X43420000Y12832000D03*
%TO.N,Net-(D88-DOUT)*%
X38527000Y24654000D03*
X43433000Y20385000D03*
%TO.N,Net-(D89-DOUT)*%
X38527000Y32227000D03*
X43420000Y27956000D03*
%TO.N,Net-(D90-DOUT)*%
X43434000Y35567000D03*
X33226000Y39802000D03*
%TO.N,Net-(D91-DOUT)*%
X45998000Y9508000D03*
X38143000Y43107000D03*
%TO.N,Net-(D92-DOUT)*%
X50903000Y12818000D03*
X45998000Y17078000D03*
%TO.N,Net-(D93-DOUT)*%
X45998000Y24654000D03*
X50899000Y20399000D03*
%TO.N,Net-(D94-DOUT)*%
X45998000Y32227000D03*
X50903000Y27986000D03*
%TO.N,Net-(D95-DOUT)*%
X40697000Y39802000D03*
X50937000Y35545000D03*
%TD*%
D14*
%TO.N,DIN*%
X-100409000Y5405716D02*
X-100564776Y5561492D01*
X-100409000Y4513000D02*
X-100409000Y5405716D01*
%TO.N,VDD*%
X-23786000Y7799000D02*
X-16334000Y7799000D01*
X-94320000Y38027000D02*
X-94319000Y38026000D01*
X-38755000Y600000D02*
X-31260000Y600000D01*
X-61167000Y1926000D02*
X-61167000Y629000D01*
X-23812000Y1926000D02*
X-23822000Y1916000D01*
X-68638000Y15400000D02*
X-68590000Y15352000D01*
X51284478Y31996911D02*
X51128089Y31996911D01*
X50904000Y30486000D02*
X50898000Y30492000D01*
X-53707000Y7799000D02*
X-53707000Y7901000D01*
X35956000Y15400000D02*
X36004000Y15352000D01*
X13543000Y24654000D02*
X13543000Y22873000D01*
X-68594000Y7799000D02*
X-61150000Y7799000D01*
X-31260000Y600000D02*
X-23822000Y600000D01*
X38142000Y38034000D02*
X45593000Y38034000D01*
X-76098000Y600000D02*
X-68604000Y600000D01*
X28485000Y7819000D02*
X28485000Y9508000D01*
X13543000Y1926000D02*
X13543000Y606000D01*
X-94319000Y38026000D02*
X-86846000Y38026000D01*
X-76084000Y15352000D02*
X-68590000Y15352000D01*
X-16341000Y7806000D02*
X-16341000Y9508000D01*
X35956000Y17078000D02*
X35956000Y15400000D01*
X6068000Y15352000D02*
X13592000Y15352000D01*
X-98522000Y17078000D02*
X-98522000Y15358000D01*
X43427000Y15380000D02*
X43455000Y15352000D01*
X13543000Y606000D02*
X13549000Y600000D01*
X-68638000Y22858000D02*
X-61172000Y22858000D01*
X35967000Y7799000D02*
X35956000Y7810000D01*
X-91051000Y600000D02*
X-83622000Y600000D01*
X21015000Y15352000D02*
X28538000Y15352000D01*
X-38760000Y22858000D02*
X-31280000Y22858000D01*
X-68594000Y7799000D02*
X-68638000Y7843000D01*
X-76109000Y32227000D02*
X-76218000Y32227000D01*
X-98522000Y22858000D02*
X-91064000Y22858000D01*
X-53696000Y17078000D02*
X-53696000Y15361000D01*
X-53696000Y634000D02*
X-53730000Y600000D01*
X-16341000Y1926000D02*
X-16341000Y602000D01*
X43423000Y7799000D02*
X50886000Y7799000D01*
X-98522000Y9508000D02*
X-98522000Y7803000D01*
X50898000Y17078000D02*
X50898000Y17155000D01*
X-76107000Y30403000D02*
X-76106000Y30404000D01*
X-53696000Y1926000D02*
X-53696000Y634000D01*
X-98522000Y15358000D02*
X-98516000Y15352000D01*
X-16358000Y15352000D02*
X-8863000Y15352000D01*
X-91051000Y7804000D02*
X-91051000Y9508000D01*
X-98453000Y24654000D02*
X-98402000Y24705000D01*
X-98530000Y6427000D02*
X-98522000Y6435000D01*
X35956000Y22915000D02*
X36013000Y22858000D01*
X-98524000Y30403000D02*
X-91016000Y30403000D01*
X-1384000Y7799000D02*
X-1384000Y7907000D01*
X-91051000Y15387000D02*
X-91016000Y15352000D01*
X-76109000Y30407000D02*
X-76106000Y30404000D01*
X-1399000Y17078000D02*
X-1399000Y15379000D01*
X50886000Y7799000D02*
X50890000Y7795000D01*
X-83580000Y1926000D02*
X-83580000Y642000D01*
X35956000Y1926000D02*
X35956000Y634000D01*
X13558000Y22858000D02*
X20995000Y22858000D01*
X43414000Y30486000D02*
X50904000Y30486000D01*
X-38754000Y22864000D02*
X-38760000Y22858000D01*
X-23822000Y1916000D02*
X-23822000Y600000D01*
X28485000Y15405000D02*
X28538000Y15352000D01*
X-16334000Y7799000D02*
X-8863000Y7799000D01*
X-46225000Y24654000D02*
X-46225000Y22871000D01*
X6082000Y7906000D02*
X6072000Y7916000D01*
X-8863000Y7799000D02*
X-1384000Y7799000D01*
X-1399000Y15379000D02*
X-1426000Y15352000D01*
X-38754000Y7807000D02*
X-38754000Y9508000D01*
X-98526000Y7799000D02*
X-91046000Y7799000D01*
X50901000Y22858000D02*
X50898000Y22861000D01*
X-91016000Y30403000D02*
X-83565000Y30403000D01*
X-61167000Y24654000D02*
X-61167000Y22863000D01*
X-83580000Y30418000D02*
X-83565000Y30403000D01*
X-31283000Y15358000D02*
X-31289000Y15352000D01*
X21014000Y24654000D02*
X21014000Y22877000D01*
X21022000Y7930000D02*
X21014000Y7938000D01*
X-31283000Y22861000D02*
X-31280000Y22858000D01*
X-1399000Y1926000D02*
X-1399000Y646000D01*
X-8870000Y24654000D02*
X-8870000Y22870000D01*
X35990000Y600000D02*
X43432000Y600000D01*
X-38754000Y601000D02*
X-38755000Y600000D01*
X-91051000Y22871000D02*
X-91064000Y22858000D01*
X-1402000Y22858000D02*
X6092000Y22858000D01*
X13592000Y15352000D02*
X21015000Y15352000D01*
X-16343000Y600000D02*
X-8877000Y600000D01*
X-23812000Y24654000D02*
X-23812000Y22870000D01*
X-98522000Y24654000D02*
X-98453000Y24654000D01*
X-53696000Y15361000D02*
X-53687000Y15352000D01*
X-53707000Y7901000D02*
X-53696000Y7912000D01*
X-76109000Y15377000D02*
X-76084000Y15352000D01*
X-8870000Y1926000D02*
X-8870000Y607000D01*
X-76109000Y22878000D02*
X-76089000Y22858000D01*
X-83580000Y15382000D02*
X-83550000Y15352000D01*
X50898000Y22861000D02*
X50898000Y24654000D01*
X13549000Y600000D02*
X21015000Y600000D01*
X-61138000Y600000D02*
X-53730000Y600000D01*
X43427000Y17078000D02*
X43427000Y15380000D01*
X-16319000Y22858000D02*
X-8882000Y22858000D01*
X-46187000Y7799000D02*
X-46225000Y7837000D01*
X-31268000Y7799000D02*
X-23786000Y7799000D01*
X28485000Y30487000D02*
X28486000Y30486000D01*
X-46250000Y15352000D02*
X-38755000Y15352000D01*
X43455000Y15352000D02*
X50891000Y15352000D01*
X35956000Y24654000D02*
X35956000Y22915000D01*
X-91046000Y7799000D02*
X-83590000Y7799000D01*
X-8877000Y600000D02*
X-1353000Y600000D01*
X6072000Y24654000D02*
X6072000Y22878000D01*
X51128089Y31996911D02*
X50898000Y32227000D01*
X50890000Y7795000D02*
X50898000Y7803000D01*
X-16341000Y15369000D02*
X-16358000Y15352000D01*
X50892000Y15351000D02*
X50898000Y15357000D01*
X-31283000Y24654000D02*
X-31283000Y22861000D01*
X6082000Y7799000D02*
X6082000Y7906000D01*
X-38754000Y17078000D02*
X-38754000Y15353000D01*
X-76109000Y32227000D02*
X-76109000Y30407000D01*
X-83590000Y7799000D02*
X-76127000Y7799000D01*
X13547000Y7799000D02*
X21022000Y7799000D01*
X-46187000Y7799000D02*
X-38762000Y7799000D01*
X6072000Y17078000D02*
X6072000Y15356000D01*
X-91051000Y24654000D02*
X-91051000Y22871000D01*
X-31289000Y15352000D02*
X-23809000Y15352000D01*
X-102075389Y6429961D02*
X-102075389Y6436611D01*
X-38754000Y15353000D02*
X-38755000Y15352000D01*
X13547000Y7799000D02*
X13547000Y7949000D01*
X28485000Y24654000D02*
X28485000Y22863000D01*
X6092000Y22858000D02*
X13558000Y22858000D01*
X13543000Y17078000D02*
X13543000Y15401000D01*
X-61167000Y7924000D02*
X-61167000Y9508000D01*
X-61167000Y22863000D02*
X-61172000Y22858000D01*
X-76109000Y24654000D02*
X-76109000Y22878000D01*
X-102075389Y6429961D02*
X-98532961Y6429961D01*
X28490000Y22858000D02*
X36013000Y22858000D01*
X-31283000Y1926000D02*
X-31283000Y623000D01*
X-79380000Y38041000D02*
X-79395000Y38026000D01*
X-98522000Y7803000D02*
X-98526000Y7799000D01*
X-8870000Y17078000D02*
X-8870000Y15359000D01*
X28485000Y618000D02*
X28467000Y600000D01*
X-76109000Y32227000D02*
X-75823000Y32227000D01*
X-83550000Y15352000D02*
X-76084000Y15352000D01*
X-53677000Y22858000D02*
X-46212000Y22858000D01*
X-68638000Y24654000D02*
X-68638000Y22858000D01*
X43427000Y1926000D02*
X45013000Y1926000D01*
X43432000Y600000D02*
X43427000Y605000D01*
X-83580000Y17078000D02*
X-83580000Y15382000D01*
X-38762000Y7799000D02*
X-38754000Y7807000D01*
X-98522000Y30405000D02*
X-98524000Y30403000D01*
X45013000Y1926000D02*
X50886000Y7799000D01*
X-8882000Y22858000D02*
X-1402000Y22858000D01*
X6072000Y1926000D02*
X6072000Y640000D01*
X6072000Y15356000D02*
X6068000Y15352000D01*
X28485000Y22863000D02*
X28490000Y22858000D01*
X-91051000Y30438000D02*
X-91016000Y30403000D01*
X-31283000Y17078000D02*
X-31283000Y15358000D01*
X-61172000Y22858000D02*
X-53677000Y22858000D01*
X-83580000Y7809000D02*
X-83580000Y9508000D01*
X-91064000Y22858000D02*
X-83570000Y22858000D01*
X-86849000Y38029000D02*
X-86846000Y38026000D01*
X-23822000Y600000D02*
X-16343000Y600000D01*
X-8870000Y15359000D02*
X-8863000Y15352000D01*
X30655000Y38038000D02*
X30659000Y38034000D01*
X-79380000Y39802000D02*
X-79380000Y38041000D01*
X-53687000Y15352000D02*
X-46250000Y15352000D01*
X20995000Y22858000D02*
X28490000Y22858000D01*
X13543000Y22873000D02*
X13558000Y22858000D01*
X28485000Y1926000D02*
X28485000Y618000D01*
X-76109000Y7945000D02*
X-76109000Y9508000D01*
X38126000Y39802000D02*
X38126000Y38050000D01*
X-83570000Y22858000D02*
X-76089000Y22858000D01*
X-68638000Y1926000D02*
X-68638000Y634000D01*
X21014000Y601000D02*
X21015000Y600000D01*
X43427000Y32227000D02*
X43427000Y30499000D01*
X-86849000Y39802000D02*
X-86849000Y38029000D01*
X-83580000Y642000D02*
X-83622000Y600000D01*
X-8863000Y7799000D02*
X-8870000Y7806000D01*
X43427000Y24654000D02*
X43427000Y22881000D01*
X-98450000Y9508000D02*
X-98377000Y9581000D01*
X-8870000Y22870000D02*
X-8882000Y22858000D01*
X-1399000Y22861000D02*
X-1402000Y22858000D01*
X21014000Y7938000D02*
X21014000Y9508000D01*
X21014000Y15353000D02*
X21015000Y15352000D01*
X43427000Y30499000D02*
X43414000Y30486000D01*
X-83590000Y7799000D02*
X-83580000Y7809000D01*
X-16343000Y600000D02*
X-16341000Y602000D01*
X50898000Y24697000D02*
X51287000Y25086000D01*
X-8870000Y7806000D02*
X-8870000Y9508000D01*
X35956000Y634000D02*
X35990000Y600000D01*
X-46225000Y7837000D02*
X-46225000Y9508000D01*
X-91051000Y32227000D02*
X-91051000Y30438000D01*
X-83580000Y32227000D02*
X-83580000Y30418000D01*
X6072000Y7916000D02*
X6072000Y9508000D01*
X-38754000Y24654000D02*
X-38754000Y22864000D01*
X28467000Y600000D02*
X35990000Y600000D01*
X-61150000Y7907000D02*
X-61167000Y7924000D01*
X-23812000Y17078000D02*
X-23812000Y15355000D01*
X-46225000Y17078000D02*
X-46225000Y15377000D01*
X21014000Y1926000D02*
X21014000Y601000D01*
X-1399000Y24654000D02*
X-1399000Y22861000D01*
X-8863000Y15352000D02*
X-1426000Y15352000D01*
X-94320000Y39802000D02*
X-94320000Y38027000D01*
X-46212000Y22858000D02*
X-38760000Y22858000D01*
X-16341000Y17078000D02*
X-16341000Y15369000D01*
X-68638000Y17078000D02*
X-68638000Y15400000D01*
X-31283000Y7952000D02*
X-31283000Y9508000D01*
X28505000Y7799000D02*
X35967000Y7799000D01*
X-68590000Y15352000D02*
X-61167000Y15352000D01*
X-76127000Y7927000D02*
X-76109000Y7945000D01*
X-76109000Y611000D02*
X-76098000Y600000D01*
X-76210000Y600000D02*
X-76098000Y600000D01*
X43427000Y7803000D02*
X43427000Y9508000D01*
X-91051000Y1926000D02*
X-91051000Y600000D01*
X-53730000Y600000D02*
X-38755000Y600000D01*
X35956000Y32227000D02*
X35956000Y30488000D01*
X45597000Y38030000D02*
X45597000Y39802000D01*
X-98522000Y24654000D02*
X-98522000Y22858000D01*
X-23812000Y7923000D02*
X-23812000Y9508000D01*
X50891000Y15352000D02*
X50892000Y15351000D01*
X28486000Y30486000D02*
X35954000Y30486000D01*
X-53707000Y7799000D02*
X-46187000Y7799000D01*
X6072000Y640000D02*
X6112000Y600000D01*
X50898000Y30492000D02*
X50898000Y32227000D01*
X-61167000Y15352000D02*
X-53687000Y15352000D01*
X43450000Y22858000D02*
X50901000Y22858000D01*
X36013000Y22858000D02*
X43450000Y22858000D01*
X-98522000Y9508000D02*
X-98450000Y9508000D01*
X-76109000Y17078000D02*
X-76109000Y15377000D01*
X-8870000Y607000D02*
X-8877000Y600000D01*
X-38755000Y15352000D02*
X-31289000Y15352000D01*
X-68638000Y634000D02*
X-68604000Y600000D01*
X-16341000Y22880000D02*
X-16319000Y22858000D01*
X30655000Y39802000D02*
X30655000Y38038000D01*
X-31283000Y623000D02*
X-31260000Y600000D01*
X-31280000Y22858000D02*
X-23800000Y22858000D01*
X-83565000Y30403000D02*
X-76107000Y30403000D01*
X-53696000Y22877000D02*
X-53677000Y22858000D01*
X-1353000Y600000D02*
X6112000Y600000D01*
X-76089000Y22858000D02*
X-68638000Y22858000D01*
X21014000Y22877000D02*
X20995000Y22858000D01*
X43427000Y605000D02*
X43427000Y1926000D01*
X-98522000Y6435000D02*
X-98522000Y9508000D01*
X-1399000Y646000D02*
X-1353000Y600000D01*
X-46225000Y1926000D02*
X-46225000Y611000D01*
X-76218000Y32227000D02*
X-76249000Y32258000D01*
X-23812000Y15355000D02*
X-23809000Y15352000D01*
X-91046000Y7799000D02*
X-91051000Y7804000D01*
X-98532961Y6429961D02*
X-98530000Y6427000D01*
X-23809000Y15352000D02*
X-16358000Y15352000D01*
X-16334000Y7799000D02*
X-16341000Y7806000D01*
X45593000Y38034000D02*
X45597000Y38030000D01*
X-31268000Y7799000D02*
X-31268000Y7937000D01*
X-98522000Y32227000D02*
X-98522000Y30405000D01*
X-61167000Y17078000D02*
X-61167000Y15352000D01*
X-23800000Y22858000D02*
X-16319000Y22858000D01*
X30659000Y38034000D02*
X38142000Y38034000D01*
X43427000Y22881000D02*
X43450000Y22858000D01*
X38126000Y38050000D02*
X38142000Y38034000D01*
X-46225000Y15377000D02*
X-46250000Y15352000D01*
X13543000Y7953000D02*
X13543000Y9508000D01*
X-31268000Y7937000D02*
X-31283000Y7952000D01*
X36004000Y15352000D02*
X43455000Y15352000D01*
X6072000Y22878000D02*
X6092000Y22858000D01*
X35967000Y7799000D02*
X43423000Y7799000D01*
X-86846000Y38026000D02*
X-79395000Y38026000D01*
X35954000Y30486000D02*
X43414000Y30486000D01*
X50898000Y7803000D02*
X50898000Y9508000D01*
X-76109000Y701000D02*
X-76210000Y600000D01*
X28505000Y7799000D02*
X28485000Y7819000D01*
X-91016000Y15352000D02*
X-83550000Y15352000D01*
X-83580000Y24654000D02*
X-83580000Y22868000D01*
X-23786000Y7799000D02*
X-23786000Y7897000D01*
X21014000Y17078000D02*
X21014000Y15353000D01*
X21022000Y7799000D02*
X28505000Y7799000D01*
X-68604000Y600000D02*
X-61138000Y600000D01*
X-68638000Y7843000D02*
X-68638000Y9508000D01*
X35956000Y7810000D02*
X35956000Y9508000D01*
X-38762000Y7799000D02*
X-31268000Y7799000D01*
X6082000Y7799000D02*
X13547000Y7799000D01*
X-76109000Y1926000D02*
X-76109000Y611000D01*
X6112000Y600000D02*
X13549000Y600000D01*
X50898000Y24654000D02*
X50898000Y24697000D01*
X50898000Y17155000D02*
X50946000Y17203000D01*
X-83580000Y22868000D02*
X-83570000Y22858000D01*
X-16341000Y24654000D02*
X-16341000Y22880000D01*
X28485000Y32227000D02*
X28485000Y30487000D01*
X-38754000Y1926000D02*
X-38754000Y601000D01*
X-76127000Y7799000D02*
X-76127000Y7927000D01*
X35956000Y30488000D02*
X35954000Y30486000D01*
X28485000Y17078000D02*
X28485000Y15405000D01*
X-23786000Y7897000D02*
X-23812000Y7923000D01*
X-76127000Y7799000D02*
X-68594000Y7799000D01*
X21015000Y600000D02*
X28467000Y600000D01*
X-53696000Y24654000D02*
X-53696000Y22877000D01*
X-61167000Y629000D02*
X-61138000Y600000D01*
X43423000Y7799000D02*
X43427000Y7803000D01*
X-46225000Y22871000D02*
X-46212000Y22858000D01*
X-1426000Y15352000D02*
X6068000Y15352000D01*
X-83622000Y600000D02*
X-76210000Y600000D01*
X-53696000Y7912000D02*
X-53696000Y9508000D01*
X13547000Y7949000D02*
X13543000Y7953000D01*
X28538000Y15352000D02*
X36004000Y15352000D01*
X-23812000Y22870000D02*
X-23800000Y22858000D01*
X-61150000Y7799000D02*
X-61150000Y7907000D01*
X21022000Y7799000D02*
X21022000Y7930000D01*
X-1384000Y7907000D02*
X-1399000Y7922000D01*
X50898000Y15357000D02*
X50898000Y17078000D01*
X-61150000Y7799000D02*
X-53707000Y7799000D01*
X13543000Y15401000D02*
X13592000Y15352000D01*
X-1384000Y7799000D02*
X6082000Y7799000D01*
X-98516000Y15352000D02*
X-91016000Y15352000D01*
X-1399000Y7922000D02*
X-1399000Y9508000D01*
X-91051000Y17078000D02*
X-91051000Y15387000D01*
%TO.N,GND*%
X-88480000Y20378000D02*
X-88480000Y22143000D01*
X-6309000Y14537000D02*
X1186000Y14537000D01*
X1163000Y29396000D02*
X1172000Y29387000D01*
X-21256000Y22150000D02*
X-13771000Y22150000D01*
X-66067000Y5226000D02*
X-66067000Y6912000D01*
X45990000Y14537000D02*
X45998000Y14529000D01*
X16114000Y6969000D02*
X16124000Y6979000D01*
X20453000Y29396000D02*
X20777000Y29720000D01*
X31041000Y29720000D02*
X38516000Y29720000D01*
X-95951000Y12808000D02*
X-95951000Y14532000D01*
X-51125000Y14501000D02*
X-51089000Y14537000D01*
X-96112650Y5226000D02*
X-95951000Y5226000D01*
X-103422000Y27954000D02*
X-103422000Y29741000D01*
X1172000Y22129000D02*
X1151000Y22150000D01*
X8639000Y29396000D02*
X8639000Y29297000D01*
X45839000Y20378000D02*
X45807000Y20410000D01*
X-99220000Y44591000D02*
X-99223000Y44594000D01*
X-66000000Y6979000D02*
X-58563000Y6979000D01*
X45998000Y22147000D02*
X45998000Y20378000D01*
X-36158000Y14537000D02*
X-28721000Y14537000D01*
X-88480000Y29738000D02*
X-88494000Y29752000D01*
X38516000Y29720000D02*
X45998000Y29720000D01*
X8646000Y22150000D02*
X16111000Y22150000D01*
X-6299000Y29381000D02*
X-6299000Y27954000D01*
X-51148000Y22150000D02*
X-43644000Y22150000D01*
X45998000Y20378000D02*
X45839000Y20378000D01*
X-21241000Y20378000D02*
X-21241000Y22135000D01*
X45998000Y29720000D02*
X45998000Y27954000D01*
X-6299000Y20378000D02*
X-6299000Y22147000D01*
X16127000Y29396000D02*
X20453000Y29396000D01*
X-28728000Y6979000D02*
X-21234000Y6979000D01*
X-103422000Y20378000D02*
X-103422000Y22146000D01*
X-51125000Y20378000D02*
X-51125000Y22127000D01*
X-84280000Y44585000D02*
X-84280000Y43102000D01*
X-88487000Y22150000D02*
X-81002000Y22150000D01*
X16114000Y12808000D02*
X16114000Y14504000D01*
X-51125000Y12808000D02*
X-51125000Y14501000D01*
X-36183000Y5226000D02*
X-36183000Y6976000D01*
X8639000Y29297000D02*
X8643000Y29293000D01*
X-73523000Y6979000D02*
X-66000000Y6979000D01*
X-58596000Y14496000D02*
X-58555000Y14537000D01*
X-21255000Y14537000D02*
X-13746000Y14537000D01*
X38527000Y5226000D02*
X38527000Y5096000D01*
X-36207000Y22150000D02*
X-28712000Y22150000D01*
X8643000Y20378000D02*
X8643000Y22147000D01*
X-21241000Y12808000D02*
X-21241000Y14523000D01*
X-36195000Y29396000D02*
X-28701000Y29396000D01*
X31056000Y35527000D02*
X31056000Y37325000D01*
X23589000Y29720000D02*
X31041000Y29720000D01*
X23590000Y6979000D02*
X31070000Y6979000D01*
X23591000Y37333000D02*
X31048000Y37333000D01*
X-28721000Y14537000D02*
X-21255000Y14537000D01*
X-73575000Y22150000D02*
X-66080000Y22150000D01*
X16114000Y20378000D02*
X16114000Y22147000D01*
X-81009000Y5226000D02*
X-81009000Y6930000D01*
X-95951000Y6975000D02*
X-95955000Y6979000D01*
X16114000Y29271000D02*
X16114000Y27954000D01*
X33226000Y43102000D02*
X33226000Y44942000D01*
X-21241000Y22135000D02*
X-21256000Y22150000D01*
X-95956000Y14537000D02*
X-88447000Y14537000D01*
X-84289000Y44594000D02*
X-84280000Y44585000D01*
X8643000Y6966000D02*
X8630000Y6979000D01*
X-58602000Y29396000D02*
X-51127000Y29396000D01*
X-43654000Y27954000D02*
X-43654000Y27953000D01*
X-81009000Y14524000D02*
X-80996000Y14537000D01*
X-103422000Y27954000D02*
X-103544000Y27954000D01*
X-73538000Y29440000D02*
X-73494000Y29396000D01*
X-43654000Y27954000D02*
X-43654000Y29384000D01*
X20777000Y29720000D02*
X23589000Y29720000D01*
X-102286000Y41646000D02*
X-100827000Y43105000D01*
X-99223000Y44594000D02*
X-91763000Y44594000D01*
X25755000Y43102000D02*
X25755000Y44944000D01*
X23585000Y35825000D02*
X23797000Y35613000D01*
X-81009000Y29752000D02*
X-73534000Y29752000D01*
X38527000Y27954000D02*
X38527000Y29709000D01*
X-43638000Y14537000D02*
X-36158000Y14537000D01*
X-103422000Y14534000D02*
X-103425000Y14537000D01*
X-51125000Y5226000D02*
X-51125000Y6949000D01*
X-95972000Y22150000D02*
X-88487000Y22150000D01*
X38527000Y14525000D02*
X38515000Y14537000D01*
X25755000Y44944000D02*
X25756000Y44945000D01*
X-95951000Y12815000D02*
X-95937000Y12829000D01*
X1172000Y6958000D02*
X1193000Y6979000D01*
X-66067000Y14534000D02*
X-66064000Y14537000D01*
X-66080000Y22150000D02*
X-58624000Y22150000D01*
X8643000Y12808000D02*
X8643000Y14531000D01*
X-28712000Y5226000D02*
X-28712000Y6963000D01*
X-58596000Y27954000D02*
X-58596000Y29390000D01*
X31056000Y6965000D02*
X31070000Y6979000D01*
X-103426000Y22150000D02*
X-95972000Y22150000D01*
X-103544000Y27954000D02*
X-103617000Y28027000D01*
X46000000Y37333000D02*
X45998000Y37331000D01*
X-73530000Y14537000D02*
X-66064000Y14537000D01*
X31070000Y6979000D02*
X38520000Y6979000D01*
X31048000Y37333000D02*
X38514000Y37333000D01*
X-43642000Y29396000D02*
X-36195000Y29396000D01*
X-88494000Y29752000D02*
X-81009000Y29752000D01*
X-13746000Y14537000D02*
X-6309000Y14537000D01*
X-13778000Y29272000D02*
X-13770000Y29264000D01*
X38527000Y22149000D02*
X38528000Y22150000D01*
X-43631000Y6979000D02*
X-36180000Y6979000D01*
X38515000Y14537000D02*
X45990000Y14537000D01*
X-95951000Y27954000D02*
X-95951000Y29752000D01*
X-28712000Y12808000D02*
X-28712000Y14528000D01*
X-103422000Y37338000D02*
X-102286000Y38474000D01*
X-43654000Y29384000D02*
X-43642000Y29396000D01*
X-73538000Y12808000D02*
X-73538000Y14529000D01*
X-58555000Y14537000D02*
X-51089000Y14537000D01*
X-51125000Y22127000D02*
X-51148000Y22150000D01*
X31056000Y14500000D02*
X31093000Y14537000D01*
X-103422000Y35527000D02*
X-103422000Y37338000D01*
X23585000Y37327000D02*
X23591000Y37333000D01*
X-36183000Y14512000D02*
X-36158000Y14537000D01*
X-95951000Y35527000D02*
X-95951000Y37338000D01*
X23585000Y20378000D02*
X23585000Y22139000D01*
X-73494000Y29396000D02*
X-66078000Y29396000D01*
X-66064000Y14537000D02*
X-58555000Y14537000D01*
X-103422000Y12808000D02*
X-103531000Y12808000D01*
X25756000Y44945000D02*
X33229000Y44945000D01*
X16111000Y22150000D02*
X23596000Y22150000D01*
X31056000Y20378000D02*
X31056000Y22118000D01*
X-73538000Y29748000D02*
X-73534000Y29752000D01*
X45770348Y27954000D02*
X45402463Y28321885D01*
X-98742611Y2596039D02*
X-96112650Y5226000D01*
X31056000Y37325000D02*
X31048000Y37333000D01*
X-51125000Y29394000D02*
X-51127000Y29396000D01*
X-13770000Y12808000D02*
X-13770000Y14513000D01*
X1151000Y22150000D02*
X8646000Y22150000D01*
X-95951000Y14532000D02*
X-95956000Y14537000D01*
X-13771000Y22150000D02*
X-6296000Y22150000D01*
X-43654000Y6956000D02*
X-43631000Y6979000D01*
X8643000Y29293000D02*
X8643000Y27954000D01*
X40692000Y44945000D02*
X40693000Y44946000D01*
X8639000Y29396000D02*
X16127000Y29396000D01*
X-58596000Y6946000D02*
X-58563000Y6979000D01*
X-66067000Y12808000D02*
X-66067000Y14534000D01*
X-100827000Y43105000D02*
X-100824000Y43102000D01*
X-73538000Y5226000D02*
X-73538000Y6964000D01*
X-80960000Y6979000D02*
X-73523000Y6979000D01*
X40697000Y44942000D02*
X40697000Y43102000D01*
X-99220000Y43102000D02*
X-99220000Y44591000D01*
X23596000Y22150000D02*
X31024000Y22150000D01*
X-58596000Y20378000D02*
X-58596000Y22122000D01*
X1172000Y20378000D02*
X1172000Y22129000D01*
X-13770000Y22149000D02*
X-13771000Y22150000D01*
X33229000Y44945000D02*
X40692000Y44945000D01*
X-51125000Y6949000D02*
X-51155000Y6979000D01*
X-80996000Y14537000D02*
X-73530000Y14537000D01*
X1172000Y12808000D02*
X1172000Y14523000D01*
X-21241000Y5226000D02*
X-21241000Y6972000D01*
X38514000Y37333000D02*
X46000000Y37333000D01*
X-13770000Y6952000D02*
X-13797000Y6979000D01*
X-43654000Y22140000D02*
X-43644000Y22150000D01*
X8637000Y14537000D02*
X16147000Y14537000D01*
X-66078000Y29396000D02*
X-58602000Y29396000D01*
X16114000Y22147000D02*
X16111000Y22150000D01*
X1186000Y14537000D02*
X8637000Y14537000D01*
X-36180000Y6979000D02*
X-28728000Y6979000D01*
X-88480000Y6954000D02*
X-88455000Y6979000D01*
X38527000Y37320000D02*
X38514000Y37333000D01*
X16124000Y6979000D02*
X23590000Y6979000D01*
X-103422000Y29741000D02*
X-103411000Y29752000D01*
X-51155000Y6979000D02*
X-43631000Y6979000D01*
X8643000Y22147000D02*
X8646000Y22150000D01*
X-91763000Y44594000D02*
X-84289000Y44594000D01*
X-81009000Y12808000D02*
X-81009000Y14524000D01*
X-6299000Y14527000D02*
X-6309000Y14537000D01*
X38527000Y20378000D02*
X38527000Y22149000D01*
X-36183000Y29384000D02*
X-36195000Y29396000D01*
X16127000Y29284000D02*
X16114000Y29271000D01*
X-13770000Y20378000D02*
X-13770000Y22149000D01*
X-58596000Y29390000D02*
X-58602000Y29396000D01*
X-43654000Y12808000D02*
X-43654000Y14521000D01*
X-73538000Y29748000D02*
X-73538000Y29440000D01*
X31093000Y14537000D02*
X38515000Y14537000D01*
X-43654000Y5226000D02*
X-43654000Y6956000D01*
X-28701000Y29301000D02*
X-28712000Y29290000D01*
X-81009000Y27954000D02*
X-81009000Y29752000D01*
X16114000Y5226000D02*
X16114000Y6969000D01*
X-13770000Y5226000D02*
X-13770000Y6952000D01*
X-95947000Y37342000D02*
X-88491000Y37342000D01*
X-21234000Y6979000D02*
X-13797000Y6979000D01*
X38520000Y6979000D02*
X38520000Y6883000D01*
X-51125000Y27954000D02*
X-51125000Y29394000D01*
X-21241000Y14523000D02*
X-21255000Y14537000D01*
X-103422000Y37338000D02*
X-103426000Y37342000D01*
X-88455000Y6979000D02*
X-80960000Y6979000D01*
X-51089000Y14537000D02*
X-43638000Y14537000D01*
X-28712000Y29290000D02*
X-28712000Y27954000D01*
X-88480000Y22143000D02*
X-88487000Y22150000D01*
X38527000Y29709000D02*
X38516000Y29720000D01*
X40693000Y44946000D02*
X40697000Y44942000D01*
X-6284000Y29396000D02*
X-6299000Y29381000D01*
X1172000Y29387000D02*
X1172000Y27954000D01*
X-91749000Y44580000D02*
X-91763000Y44594000D01*
X-81009000Y6930000D02*
X-80960000Y6979000D01*
X-88480000Y12808000D02*
X-88480000Y14504000D01*
X1172000Y14523000D02*
X1186000Y14537000D01*
X16147000Y14537000D02*
X23627000Y14537000D01*
X-21254000Y29271000D02*
X-21241000Y29258000D01*
X-6299000Y22147000D02*
X-6296000Y22150000D01*
X-95951000Y37338000D02*
X-95947000Y37342000D01*
X-100824000Y43102000D02*
X-99220000Y43102000D01*
X31056000Y22118000D02*
X31024000Y22150000D01*
X45999000Y22148000D02*
X45998000Y22147000D01*
X1193000Y6979000D02*
X8630000Y6979000D01*
X-95951000Y12808000D02*
X-95951000Y12815000D01*
X23585000Y5226000D02*
X23585000Y6974000D01*
X-58563000Y6979000D02*
X-51155000Y6979000D01*
X-6284000Y29396000D02*
X1163000Y29396000D01*
X-36183000Y20378000D02*
X-36183000Y22126000D01*
X-13770000Y29264000D02*
X-13770000Y27954000D01*
X-13778000Y29396000D02*
X-6284000Y29396000D01*
X-13797000Y6979000D02*
X-6360000Y6979000D01*
X38527000Y12808000D02*
X38527000Y14525000D01*
X23585000Y6974000D02*
X23590000Y6979000D01*
X-81009000Y20378000D02*
X-81009000Y22143000D01*
X-88480000Y27954000D02*
X-88480000Y29738000D01*
X-103411000Y29752000D02*
X-95951000Y29752000D01*
X-6299000Y6918000D02*
X-6360000Y6979000D01*
X-36183000Y27954000D02*
X-36183000Y29384000D01*
X45997000Y22150000D02*
X45999000Y22148000D01*
X-73538000Y14529000D02*
X-73530000Y14537000D01*
X-43654000Y20378000D02*
X-43654000Y22140000D01*
X-13778000Y29396000D02*
X-13778000Y29272000D01*
X-81009000Y37331000D02*
X-81009000Y35527000D01*
X-28701000Y29396000D02*
X-28701000Y29301000D01*
X45998000Y14529000D02*
X45998000Y12808000D01*
X-28712000Y6963000D02*
X-28728000Y6979000D01*
X-66067000Y22137000D02*
X-66080000Y22150000D01*
X16114000Y14504000D02*
X16147000Y14537000D01*
X8643000Y14531000D02*
X8637000Y14537000D01*
X8630000Y6979000D02*
X16124000Y6979000D01*
X31056000Y27954000D02*
X31056000Y29705000D01*
X38520000Y6883000D02*
X38527000Y6876000D01*
X-88480000Y37331000D02*
X-88491000Y37342000D01*
X-66067000Y27954000D02*
X-66067000Y29385000D01*
X38528000Y22150000D02*
X45997000Y22150000D01*
X-103531000Y12808000D02*
X-103535000Y12804000D01*
X-58596000Y5226000D02*
X-58596000Y6946000D01*
X-73538000Y6964000D02*
X-73523000Y6979000D01*
X-36183000Y12808000D02*
X-36183000Y14512000D01*
X-28712000Y22150000D02*
X-21256000Y22150000D01*
X-81006000Y37334000D02*
X-81009000Y37331000D01*
X-66067000Y29385000D02*
X-66078000Y29396000D01*
X23585000Y29658000D02*
X23585000Y27954000D01*
X-58596000Y22122000D02*
X-58624000Y22150000D01*
X38527000Y35527000D02*
X38527000Y37320000D01*
X-6299000Y12808000D02*
X-6299000Y14527000D01*
X-43654000Y14521000D02*
X-43638000Y14537000D01*
X-66067000Y6912000D02*
X-66000000Y6979000D01*
X-6360000Y6979000D02*
X1193000Y6979000D01*
X23585000Y35527000D02*
X23585000Y37327000D01*
X-103422000Y22146000D02*
X-103426000Y22150000D01*
X1163000Y29396000D02*
X8639000Y29396000D01*
X-58596000Y12808000D02*
X-58596000Y14496000D01*
X-91749000Y43102000D02*
X-91749000Y44580000D01*
X23585000Y12808000D02*
X23585000Y14495000D01*
X23585000Y35527000D02*
X23585000Y37285998D01*
X-88480000Y35527000D02*
X-88480000Y37331000D01*
X-95951000Y5226000D02*
X-95951000Y6975000D01*
X23585000Y37285998D02*
X23585000Y35825000D01*
X45998000Y27954000D02*
X45770348Y27954000D01*
X-95951000Y20378000D02*
X-95951000Y22129000D01*
X31056000Y5226000D02*
X31056000Y6965000D01*
X-21241000Y29258000D02*
X-21241000Y27954000D01*
X-21241000Y6972000D02*
X-21234000Y6979000D01*
X31024000Y22150000D02*
X38528000Y22150000D01*
X16127000Y29396000D02*
X16127000Y29284000D01*
X45998000Y37331000D02*
X45998000Y35527000D01*
X-28701000Y29396000D02*
X-21254000Y29396000D01*
X-28712000Y14528000D02*
X-28721000Y14537000D01*
X23589000Y29720000D02*
X23589000Y29662000D01*
X-88447000Y14537000D02*
X-80996000Y14537000D01*
X-95955000Y6979000D02*
X-88455000Y6979000D01*
X-58624000Y22150000D02*
X-51148000Y22150000D01*
X1172000Y5226000D02*
X1172000Y6958000D01*
X-21254000Y29396000D02*
X-13778000Y29396000D01*
X-66067000Y20378000D02*
X-66067000Y22137000D01*
X-73538000Y20378000D02*
X-73538000Y22113000D01*
X31056000Y12808000D02*
X31056000Y14500000D01*
X31056000Y29705000D02*
X31041000Y29720000D01*
X-95951000Y29752000D02*
X-88494000Y29752000D01*
X23589000Y29662000D02*
X23585000Y29658000D01*
X-6296000Y22150000D02*
X1151000Y22150000D01*
X-103422000Y12808000D02*
X-103422000Y14534000D01*
X23627000Y14537000D02*
X31093000Y14537000D01*
X-36183000Y6976000D02*
X-36180000Y6979000D01*
X-81014000Y37342000D02*
X-81006000Y37334000D01*
X-13770000Y5226000D02*
X-13770000Y5215000D01*
X-36183000Y22126000D02*
X-36207000Y22150000D01*
X-51127000Y29396000D02*
X-43642000Y29396000D01*
X-81002000Y22150000D02*
X-73575000Y22150000D01*
X-88491000Y37342000D02*
X-81014000Y37342000D01*
X-73538000Y22113000D02*
X-73575000Y22150000D01*
X-103425000Y14537000D02*
X-95956000Y14537000D01*
X-103426000Y37342000D02*
X-95947000Y37342000D01*
X-102286000Y38474000D02*
X-102286000Y41646000D01*
X38527000Y5096000D02*
X38505000Y5074000D01*
X23585000Y22139000D02*
X23596000Y22150000D01*
X-88480000Y14504000D02*
X-88447000Y14537000D01*
X-13770000Y14513000D02*
X-13746000Y14537000D01*
X-81009000Y22143000D02*
X-81002000Y22150000D01*
X-21254000Y29396000D02*
X-21254000Y29271000D01*
X38527000Y6876000D02*
X38527000Y5226000D01*
X-98742611Y2596039D02*
X-98742611Y2600389D01*
X33226000Y44942000D02*
X33229000Y44945000D01*
X-6299000Y5226000D02*
X-6299000Y6918000D01*
X8643000Y5226000D02*
X8643000Y6966000D01*
X23585000Y14495000D02*
X23627000Y14537000D01*
X-73538000Y27954000D02*
X-73538000Y29748000D01*
X-28712000Y20378000D02*
X-28712000Y22150000D01*
X-95951000Y22129000D02*
X-95972000Y22150000D01*
X-43644000Y22150000D02*
X-36207000Y22150000D01*
X-88480000Y5226000D02*
X-88480000Y6954000D01*
%TO.N,Net-(D1-DOUT)*%
X-98522000Y12821000D02*
X-98528000Y12827000D01*
X-98522000Y12808000D02*
X-98522000Y12821000D01*
%TO.N,Net-(D2-DOUT)*%
X-98522000Y20378000D02*
X-98522000Y20401000D01*
X-98522000Y20401000D02*
X-98527000Y20406000D01*
%TO.N,Net-(D3-DOUT)*%
X-98522000Y27954000D02*
X-98522000Y27964000D01*
%TO.N,Net-(D4-DOUT)*%
X-98526000Y35527000D02*
X-98531000Y35532000D01*
X-98522000Y35527000D02*
X-98526000Y35527000D01*
%TO.N,Net-(D5-DOUT)*%
X-94320000Y43102000D02*
X-94306000Y43102000D01*
%TO.N,Net-(D6-DOUT)*%
X-91051000Y5246000D02*
X-91048000Y5249000D01*
X-91051000Y5226000D02*
X-91051000Y5246000D01*
%TO.N,Net-(D7-DOUT)*%
X-91051000Y12808000D02*
X-91063000Y12808000D01*
X-91063000Y12808000D02*
X-91069000Y12814000D01*
%TO.N,Net-(D8-DOUT)*%
X-91028000Y20378000D02*
X-91020000Y20386000D01*
X-91051000Y20378000D02*
X-91028000Y20378000D01*
%TO.N,Net-(D10-DIN)*%
X-91084000Y27954000D02*
X-91085000Y27955000D01*
X-91051000Y27954000D02*
X-91084000Y27954000D01*
%TO.N,Net-(D10-DOUT)*%
X-91051000Y35527000D02*
X-91051000Y35525000D01*
X-91051000Y35525000D02*
X-91045000Y35519000D01*
%TO.N,Net-(D11-DOUT)*%
X-86849000Y43102000D02*
X-86830000Y43102000D01*
X-86830000Y43102000D02*
X-86820000Y43092000D01*
%TO.N,Net-(D12-DOUT)*%
X-83580000Y5241000D02*
X-83590000Y5251000D01*
X-83580000Y5226000D02*
X-83580000Y5241000D01*
%TO.N,Net-(D13-DOUT)*%
X-83580000Y12797000D02*
X-83566000Y12783000D01*
X-83580000Y12808000D02*
X-83580000Y12797000D01*
%TO.N,Net-(D14-DOUT)*%
X-83580000Y20378000D02*
X-83580000Y20384000D01*
X-83580000Y20384000D02*
X-83567000Y20397000D01*
%TO.N,Net-(D15-DOUT)*%
X-83566000Y27954000D02*
X-83563000Y27951000D01*
X-83580000Y27954000D02*
X-83566000Y27954000D01*
%TO.N,Net-(D16-DOUT)*%
X-83580000Y35527000D02*
X-83580000Y35533000D01*
%TO.N,Net-(D17-DOUT)*%
X-79380000Y43102000D02*
X-79380000Y43091000D01*
X-79380000Y43091000D02*
X-79379000Y43090000D01*
%TO.N,Net-(D18-DOUT)*%
X-76109000Y5226000D02*
X-76128000Y5207000D01*
%TO.N,Net-(D19-DOUT)*%
X-76108000Y12808000D02*
X-76107000Y12809000D01*
X-76109000Y12808000D02*
X-76108000Y12808000D01*
%TO.N,Net-(D20-DOUT)*%
X-76109000Y20378000D02*
X-76109000Y20360000D01*
X-76109000Y20360000D02*
X-76116000Y20353000D01*
%TO.N,Net-(D21-DOUT)*%
X-76107000Y27954000D02*
X-76100000Y27961000D01*
X-76109000Y27954000D02*
X-76107000Y27954000D01*
%TO.N,Net-(D22-DOUT)*%
X-76088000Y35527000D02*
X-76074000Y35541000D01*
X-76109000Y35527000D02*
X-76088000Y35527000D01*
%TO.N,Net-(D23-DOUT)*%
X-68638000Y5226000D02*
X-68620000Y5226000D01*
X-68620000Y5226000D02*
X-68616000Y5222000D01*
%TO.N,Net-(D24-DOUT)*%
X-68638000Y12792000D02*
X-68631000Y12785000D01*
X-68638000Y12808000D02*
X-68638000Y12792000D01*
%TO.N,Net-(D25-DOUT)*%
X-68633000Y20378000D02*
X-68621000Y20366000D01*
X-68638000Y20378000D02*
X-68633000Y20378000D01*
%TO.N,Net-(D26-DOUT)*%
X-68638000Y27954000D02*
X-68609000Y27954000D01*
X-68609000Y27954000D02*
X-68595000Y27940000D01*
%TO.N,Net-(D27-DOUT)*%
X-61167000Y5201000D02*
X-61163000Y5197000D01*
X-61167000Y5226000D02*
X-61167000Y5201000D01*
%TO.N,Net-(D28-DOUT)*%
X-61167000Y12808000D02*
X-61167000Y12822000D01*
X-61167000Y12822000D02*
X-61163000Y12826000D01*
%TO.N,Net-(D29-DOUT)*%
X-61167000Y20378000D02*
X-61167000Y20371000D01*
X-61167000Y20371000D02*
X-61161000Y20365000D01*
%TO.N,Net-(D30-DOUT)*%
X-61167000Y27954000D02*
X-61119000Y27954000D01*
%TO.N,Net-(D31-DOUT)*%
X-53696000Y5226000D02*
X-53689000Y5226000D01*
X-53689000Y5226000D02*
X-53685000Y5230000D01*
%TO.N,Net-(D32-DOUT)*%
X-53696000Y12801000D02*
X-53690000Y12795000D01*
X-53696000Y12808000D02*
X-53696000Y12801000D01*
%TO.N,Net-(D33-DOUT)*%
X-53696000Y20378000D02*
X-53696000Y20380000D01*
X-53696000Y20380000D02*
X-53701000Y20385000D01*
%TO.N,Net-(D34-DOUT)*%
X-53696000Y27954000D02*
X-53688000Y27954000D01*
X-53688000Y27954000D02*
X-53680000Y27946000D01*
%TO.N,Net-(D35-DOUT)*%
X-46202000Y5226000D02*
X-46196000Y5232000D01*
X-46225000Y5226000D02*
X-46202000Y5226000D01*
%TO.N,Net-(D36-DOUT)*%
X-46225000Y12808000D02*
X-46225000Y12815000D01*
X-46225000Y12815000D02*
X-46224000Y12816000D01*
%TO.N,Net-(D37-DOUT)*%
X-46225000Y20378000D02*
X-46225000Y20358000D01*
X-46225000Y20358000D02*
X-46224000Y20357000D01*
%TO.N,Net-(D38-DOUT)*%
X-46225000Y27954000D02*
X-46215000Y27954000D01*
X-46215000Y27954000D02*
X-46201000Y27968000D01*
%TO.N,Net-(D39-DOUT)*%
X-38754000Y5226000D02*
X-38765000Y5226000D01*
%TO.N,Net-(D40-DOUT)*%
X-38754000Y12815000D02*
X-38748000Y12821000D01*
X-38754000Y12808000D02*
X-38754000Y12815000D01*
%TO.N,Net-(D41-DOUT)*%
X-38754000Y20365000D02*
X-38748000Y20359000D01*
X-38754000Y20378000D02*
X-38754000Y20365000D01*
%TO.N,Net-(D42-DOUT)*%
X-38754000Y27954000D02*
X-38754000Y27965000D01*
X-38754000Y27965000D02*
X-38744000Y27975000D01*
%TO.N,Net-(D43-DOUT)*%
X-31283000Y5223000D02*
X-31278000Y5218000D01*
X-31283000Y5226000D02*
X-31283000Y5333000D01*
X-31283000Y5226000D02*
X-31283000Y5223000D01*
X-31283000Y5333000D02*
X-31280000Y5336000D01*
%TO.N,Net-(D44-DOUT)*%
X-31283000Y12808000D02*
X-31283000Y12800000D01*
X-31283000Y12800000D02*
X-31280000Y12797000D01*
%TO.N,Net-(D45-DOUT)*%
X-31283000Y20359000D02*
X-31286000Y20356000D01*
X-31283000Y20378000D02*
X-31283000Y20359000D01*
%TO.N,Net-(D46-DOUT)*%
X-31283000Y27954000D02*
X-31283000Y27958000D01*
X-31283000Y27958000D02*
X-31260000Y27981000D01*
%TO.N,Net-(D47-DOUT)*%
X-23812000Y5226000D02*
X-23792000Y5226000D01*
X-23792000Y5226000D02*
X-23783000Y5235000D01*
%TO.N,Net-(D48-DOUT)*%
X-23812000Y12808000D02*
X-23812000Y12861000D01*
X-23812000Y12861000D02*
X-23802000Y12871000D01*
%TO.N,Net-(D49-DOUT)*%
X-23812000Y20424000D02*
X-23823000Y20435000D01*
X-23812000Y20378000D02*
X-23812000Y20424000D01*
%TO.N,Net-(D50-DOUT)*%
X-23812000Y27959000D02*
X-23808000Y27963000D01*
X-23812000Y27954000D02*
X-23812000Y27959000D01*
%TO.N,Net-(D51-DOUT)*%
X-16341000Y5226000D02*
X-16341000Y5224000D01*
X-16341000Y5224000D02*
X-16345000Y5220000D01*
%TO.N,Net-(D52-DOUT)*%
X-16341000Y12808000D02*
X-16342000Y12808000D01*
X-16342000Y12808000D02*
X-16345000Y12811000D01*
%TO.N,Net-(D53-DOUT)*%
X-16341000Y20392000D02*
X-16335000Y20398000D01*
X-16341000Y20378000D02*
X-16341000Y20392000D01*
%TO.N,Net-(D54-DOUT)*%
X-16341000Y27954000D02*
X-16338000Y27954000D01*
X-16338000Y27954000D02*
X-16332000Y27960000D01*
%TO.N,Net-(D55-DOUT)*%
X-8870000Y5226000D02*
X-8870000Y5230000D01*
X-8870000Y5230000D02*
X-8863000Y5237000D01*
%TO.N,Net-(D56-DOUT)*%
X-8870000Y12808000D02*
X-8870000Y12829000D01*
X-8870000Y12829000D02*
X-8872000Y12831000D01*
%TO.N,Net-(D57-DOUT)*%
X-8867000Y20378000D02*
X-8866000Y20377000D01*
X-8870000Y20378000D02*
X-8867000Y20378000D01*
%TO.N,Net-(D58-DOUT)*%
X-8870000Y27953000D02*
X-8860000Y27943000D01*
X-8870000Y27954000D02*
X-8870000Y27953000D01*
%TO.N,Net-(D59-DOUT)*%
X-1399000Y5233000D02*
X-1387000Y5245000D01*
X-1399000Y5226000D02*
X-1399000Y5233000D01*
%TO.N,Net-(D60-DOUT)*%
X-1399000Y12808000D02*
X-1399000Y12823000D01*
X-1399000Y12823000D02*
X-1393000Y12829000D01*
%TO.N,Net-(D61-DOUT)*%
X-1399000Y20393000D02*
X-1400000Y20394000D01*
X-1399000Y20378000D02*
X-1399000Y20393000D01*
%TO.N,Net-(D62-DOUT)*%
X-1396000Y27954000D02*
X-1390000Y27948000D01*
X-1399000Y27954000D02*
X-1396000Y27954000D01*
%TO.N,Net-(D63-DOUT)*%
X6072000Y5243000D02*
X6077000Y5248000D01*
X6072000Y5226000D02*
X6072000Y5243000D01*
%TO.N,Net-(D64-DOUT)*%
X6072000Y12808000D02*
X6072000Y12802000D01*
X6072000Y12802000D02*
X6071000Y12801000D01*
%TO.N,Net-(D65-DOUT)*%
X6072000Y20400000D02*
X6071000Y20401000D01*
X6072000Y20378000D02*
X6072000Y20400000D01*
%TO.N,Net-(D66-DOUT)*%
X6072000Y27954000D02*
X6082000Y27954000D01*
%TO.N,Net-(D67-DOUT)*%
X13543000Y5226000D02*
X13543000Y5239000D01*
X13543000Y5239000D02*
X13544000Y5240000D01*
%TO.N,Net-(D68-DOUT)*%
X13543000Y12808000D02*
X13543000Y12810000D01*
X13543000Y12810000D02*
X13549000Y12816000D01*
%TO.N,Net-(D69-DOUT)*%
X13543000Y20378000D02*
X13532000Y20378000D01*
X13532000Y20378000D02*
X13529000Y20381000D01*
%TO.N,Net-(D70-DOUT)*%
X13543000Y27954000D02*
X13539000Y27954000D01*
X13539000Y27954000D02*
X13538000Y27953000D01*
%TO.N,Net-(D71-DOUT)*%
X21014000Y5226000D02*
X21014000Y5236000D01*
X21014000Y5236000D02*
X21018000Y5240000D01*
%TO.N,Net-(D72-DOUT)*%
X21014000Y12808000D02*
X21014000Y12803000D01*
X21014000Y12803000D02*
X21018000Y12799000D01*
%TO.N,Net-(D73-DOUT)*%
X21014000Y20378000D02*
X21010000Y20378000D01*
X21010000Y20378000D02*
X21005000Y20383000D01*
%TO.N,Net-(D74-DOUT)*%
X21014000Y27955000D02*
X21010000Y27959000D01*
X21014000Y27954000D02*
X21014000Y27955000D01*
%TO.N,Net-(D75-DOUT)*%
X28485000Y5226000D02*
X28492000Y5226000D01*
X28492000Y5226000D02*
X28494000Y5228000D01*
%TO.N,Net-(D76-DOUT)*%
X28485000Y12802000D02*
X28494000Y12793000D01*
X28485000Y12808000D02*
X28485000Y12802000D01*
%TO.N,Net-(D77-DOUT)*%
X28485000Y20378000D02*
X28475000Y20378000D01*
X28475000Y20378000D02*
X28469000Y20384000D01*
%TO.N,Net-(D78-DOUT)*%
X28485000Y27954000D02*
X28485000Y27948000D01*
X28485000Y27948000D02*
X28496000Y27937000D01*
%TO.N,Net-(D79-DOUT)*%
X28504000Y35527000D02*
X28514000Y35517000D01*
X28485000Y35527000D02*
X28504000Y35527000D01*
%TO.N,Net-(D80-DOUT)*%
X35952000Y5226000D02*
X35951000Y5225000D01*
X35956000Y5226000D02*
X35952000Y5226000D01*
%TO.N,Net-(D81-DOUT)*%
X35956000Y12840000D02*
X35957000Y12841000D01*
X35956000Y12808000D02*
X35956000Y12840000D01*
%TO.N,Net-(D82-DOUT)*%
X35956000Y20378000D02*
X35956000Y20366000D01*
X35956000Y20366000D02*
X35951000Y20361000D01*
%TO.N,Net-(D83-DOUT)*%
X35956000Y27954000D02*
X35964000Y27946000D01*
%TO.N,Net-(D84-DOUT)*%
X35956000Y35527000D02*
X35951000Y35527000D01*
X35956000Y35657000D02*
X35985000Y35686000D01*
X35956000Y35527000D02*
X35956000Y35657000D01*
%TO.N,Net-(D85-DOUT)*%
X30670000Y43102000D02*
X30687000Y43119000D01*
X30655000Y43102000D02*
X30670000Y43102000D01*
%TO.N,Net-(D86-DOUT)*%
X43427000Y5226000D02*
X43423000Y5226000D01*
X43423000Y5226000D02*
X43420000Y5223000D01*
%TO.N,Net-(D87-DOUT)*%
X43427000Y12825000D02*
X43420000Y12832000D01*
X43427000Y12808000D02*
X43427000Y12825000D01*
%TO.N,Net-(D88-DOUT)*%
X43427000Y20378000D02*
X43427000Y20379000D01*
X43427000Y20379000D02*
X43433000Y20385000D01*
%TO.N,Net-(D89-DOUT)*%
X43422000Y27954000D02*
X43420000Y27956000D01*
X43427000Y27954000D02*
X43422000Y27954000D01*
%TO.N,Net-(D90-DOUT)*%
X43427000Y35560000D02*
X43434000Y35567000D01*
X43427000Y35527000D02*
X43427000Y35560000D01*
%TO.N,Net-(D91-DOUT)*%
X38126000Y43102000D02*
X38138000Y43102000D01*
X38138000Y43102000D02*
X38143000Y43107000D01*
%TO.N,Net-(D92-DOUT)*%
X50898000Y12808000D02*
X50898000Y12813000D01*
X50898000Y12813000D02*
X50903000Y12818000D01*
%TO.N,Net-(D93-DOUT)*%
X50898000Y20378000D02*
X50898000Y20398000D01*
X50898000Y20398000D02*
X50899000Y20399000D01*
%TO.N,Net-(D94-DOUT)*%
X50898000Y27981000D02*
X50903000Y27986000D01*
X50898000Y27954000D02*
X50898000Y27981000D01*
%TO.N,Net-(D95-DOUT)*%
X50898000Y35527000D02*
X50919000Y35527000D01*
X50919000Y35527000D02*
X50937000Y35545000D01*
%TD*%
M02*
