%TF.GenerationSoftware,KiCad,Pcbnew,8.0.3*%
%TF.CreationDate,2024-06-18T13:15:14+02:00*%
%TF.ProjectId,bd1-board,6264312d-626f-4617-9264-2e6b69636164,rev?*%
%TF.SameCoordinates,Original*%
%TF.FileFunction,Legend,Bot*%
%TF.FilePolarity,Positive*%
%FSLAX46Y46*%
G04 Gerber Fmt 4.6, Leading zero omitted, Abs format (unit mm)*
G04 Created by KiCad (PCBNEW 8.0.3) date 2024-06-18 13:15:14*
%MOMM*%
%LPD*%
G01*
G04 APERTURE LIST*
%ADD10C,0.100000*%
%ADD11C,0.075000*%
%ADD12C,0.125000*%
%ADD13C,0.200000*%
G04 APERTURE END LIST*
D10*
X-100657459Y5435496D02*
X-100998458Y5801173D01*
X-100998458Y5801173D02*
X-101085524Y5719983D01*
X-101085524Y5719983D02*
X-101121525Y5653855D01*
X-101121525Y5653855D02*
X-101123875Y5586553D01*
X-101123875Y5586553D02*
X-101108813Y5535488D01*
X-101108813Y5535488D02*
X-101061274Y5449598D01*
X-101061274Y5449598D02*
X-101012559Y5397358D01*
X-101012559Y5397358D02*
X-100930194Y5343943D01*
X-100930194Y5343943D02*
X-100880305Y5325355D01*
X-100880305Y5325355D02*
X-100813002Y5323005D01*
X-100813002Y5323005D02*
X-100744525Y5354306D01*
X-100744525Y5354306D02*
X-100657459Y5435496D01*
X-101023135Y5094497D02*
X-101364135Y5460174D01*
X-101197267Y4932117D02*
X-101538266Y5297793D01*
X-101538266Y5297793D02*
X-101406225Y4737260D01*
X-101406225Y4737260D02*
X-101747225Y5102937D01*
X-99329112Y3717274D02*
X-99312858Y3756642D01*
X-99312858Y3756642D02*
X-99269731Y3794131D01*
X-99269731Y3794131D02*
X-99214109Y3817245D01*
X-99214109Y3817245D02*
X-99160365Y3813487D01*
X-99160365Y3813487D02*
X-99120997Y3797232D01*
X-99120997Y3797232D02*
X-99056636Y3752227D01*
X-99056636Y3752227D02*
X-99019147Y3709101D01*
X-99019147Y3709101D02*
X-98983537Y3639103D01*
X-98983537Y3639103D02*
X-98972920Y3597855D01*
X-98972920Y3597855D02*
X-98976678Y3544112D01*
X-98976678Y3544112D02*
X-99007308Y3492247D01*
X-99007308Y3492247D02*
X-99036059Y3467255D01*
X-99036059Y3467255D02*
X-99091681Y3444141D01*
X-99091681Y3444141D02*
X-99118553Y3446020D01*
X-99118553Y3446020D02*
X-99206028Y3546648D01*
X-99206028Y3546648D02*
X-99148526Y3596633D01*
X-99222939Y3304802D02*
X-99485363Y3606686D01*
X-99485363Y3606686D02*
X-99395444Y3154846D01*
X-99395444Y3154846D02*
X-99657868Y3456729D01*
X-99539199Y3029882D02*
X-99801622Y3331766D01*
X-99801622Y3331766D02*
X-99873499Y3269284D01*
X-99873499Y3269284D02*
X-99904129Y3217419D01*
X-99904129Y3217419D02*
X-99907887Y3163676D01*
X-99907887Y3163676D02*
X-99897270Y3122428D01*
X-99897270Y3122428D02*
X-99861660Y3052430D01*
X-99861660Y3052430D02*
X-99824171Y3009304D01*
X-99824171Y3009304D02*
X-99759810Y2964299D01*
X-99759810Y2964299D02*
X-99720442Y2948044D01*
X-99720442Y2948044D02*
X-99666698Y2944286D01*
X-99666698Y2944286D02*
X-99611076Y2967400D01*
X-99611076Y2967400D02*
X-99539199Y3029882D01*
D11*
X-101959627Y7686614D02*
X-101816770Y7686614D01*
X-101816770Y7686614D02*
X-101802484Y7543757D01*
X-101802484Y7543757D02*
X-101816770Y7558042D01*
X-101816770Y7558042D02*
X-101845342Y7572328D01*
X-101845342Y7572328D02*
X-101916770Y7572328D01*
X-101916770Y7572328D02*
X-101945342Y7558042D01*
X-101945342Y7558042D02*
X-101959627Y7543757D01*
X-101959627Y7543757D02*
X-101973913Y7515185D01*
X-101973913Y7515185D02*
X-101973913Y7443757D01*
X-101973913Y7443757D02*
X-101959627Y7415185D01*
X-101959627Y7415185D02*
X-101945342Y7400900D01*
X-101945342Y7400900D02*
X-101916770Y7386614D01*
X-101916770Y7386614D02*
X-101845342Y7386614D01*
X-101845342Y7386614D02*
X-101816770Y7400900D01*
X-101816770Y7400900D02*
X-101802484Y7415185D01*
X-102059627Y7686614D02*
X-102159627Y7386614D01*
X-102159627Y7386614D02*
X-102259627Y7686614D01*
D12*
X-98283968Y5491756D02*
X-98553507Y5257449D01*
X-98553507Y5257449D02*
X-98591794Y5192619D01*
X-98591794Y5192619D02*
X-98596492Y5125439D01*
X-98596492Y5125439D02*
X-98567600Y5055911D01*
X-98567600Y5055911D02*
X-98536359Y5019972D01*
X-98989352Y5541081D02*
X-98801906Y5325450D01*
X-98895629Y5433265D02*
X-98518274Y5761295D01*
X-98518274Y5761295D02*
X-98540941Y5678495D01*
X-98540941Y5678495D02*
X-98545639Y5611316D01*
X-98545639Y5611316D02*
X-98532367Y5559757D01*
D13*
%TO.C,J1*%
X-103867067Y6555248D02*
X-101950103Y8221639D01*
X-98867897Y804361D02*
X-103867067Y6555248D01*
X-96950933Y2470752D02*
X-101950103Y8221639D01*
X-96950933Y2470752D02*
X-98867897Y804361D01*
X-97382974Y1146995D02*
G75*
G02*
X-97582978Y1146995I-100002J0D01*
G01*
X-97582978Y1146995D02*
G75*
G02*
X-97382974Y1146995I100002J0D01*
G01*
%TD*%
M02*
