%TF.GenerationSoftware,KiCad,Pcbnew,8.0.3*%
%TF.CreationDate,2024-06-18T13:15:14+02:00*%
%TF.ProjectId,bd1-board,6264312d-626f-4617-9264-2e6b69636164,rev?*%
%TF.SameCoordinates,Original*%
%TF.FileFunction,Profile,NP*%
%FSLAX46Y46*%
G04 Gerber Fmt 4.6, Leading zero omitted, Abs format (unit mm)*
G04 Created by KiCad (PCBNEW 8.0.3) date 2024-06-18 13:15:14*
%MOMM*%
%LPD*%
G01*
G04 APERTURE LIST*
%TA.AperFunction,Profile*%
%ADD10C,0.050000*%
%TD*%
G04 APERTURE END LIST*
D10*
X-72492000Y30000000D02*
X-77852018Y44802044D01*
X43698000Y45786000D02*
X43764412Y45768157D01*
X-98650000Y0D02*
X45100000Y0D01*
X52267663Y36312976D02*
X52257999Y36424000D01*
X-78141000Y45207000D02*
G75*
G02*
X-77853164Y44801447I-1301964J-1228973D01*
G01*
X-104798105Y7110005D02*
X-104798105Y36110005D01*
X-98650000Y0D02*
X-104798105Y7110005D01*
X43600000Y45800000D02*
X43629000Y45799000D01*
X-79180000Y45680656D02*
G75*
G02*
X-78263086Y45311084I49001J-1200653D01*
G01*
X20008000Y30000000D02*
X24460001Y45100000D01*
X-72492000Y30000000D02*
X20008000Y30000000D01*
X24460001Y45100000D02*
G75*
G02*
X25122269Y45815121I889999J-160000D01*
G01*
X43629000Y45799000D02*
X43654000Y45796000D01*
X43654000Y45796000D02*
X43679000Y45791000D01*
X25122269Y45815121D02*
X43600000Y45800000D01*
X43764412Y45768157D02*
G75*
G02*
X52257993Y36423999I-2426282J-10737717D01*
G01*
X-79180000Y45680656D02*
X-97657077Y45700972D01*
X52267663Y7312976D02*
X52267663Y36312976D01*
X43679000Y45791000D02*
X43698000Y45786000D01*
X-104806129Y36109097D02*
G75*
G02*
X-97657077Y45700972I8689130J983902D01*
G01*
X-78263086Y45311084D02*
X-78141000Y45207000D01*
X45100000Y0D02*
X52267816Y7313182D01*
M02*
