%TF.GenerationSoftware,KiCad,Pcbnew,8.0.3*%
%TF.CreationDate,2024-06-18T13:15:14+02:00*%
%TF.ProjectId,bd1-board,6264312d-626f-4617-9264-2e6b69636164,rev?*%
%TF.SameCoordinates,Original*%
%TF.FileFunction,Soldermask,Top*%
%TF.FilePolarity,Negative*%
%FSLAX46Y46*%
G04 Gerber Fmt 4.6, Leading zero omitted, Abs format (unit mm)*
G04 Created by KiCad (PCBNEW 8.0.3) date 2024-06-18 13:15:14*
%MOMM*%
%LPD*%
G01*
G04 APERTURE LIST*
G04 Aperture macros list*
%AMRoundRect*
0 Rectangle with rounded corners*
0 $1 Rounding radius*
0 $2 $3 $4 $5 $6 $7 $8 $9 X,Y pos of 4 corners*
0 Add a 4 corners polygon primitive as box body*
4,1,4,$2,$3,$4,$5,$6,$7,$8,$9,$2,$3,0*
0 Add four circle primitives for the rounded corners*
1,1,$1+$1,$2,$3*
1,1,$1+$1,$4,$5*
1,1,$1+$1,$6,$7*
1,1,$1+$1,$8,$9*
0 Add four rect primitives between the rounded corners*
20,1,$1+$1,$2,$3,$4,$5,0*
20,1,$1+$1,$4,$5,$6,$7,0*
20,1,$1+$1,$6,$7,$8,$9,0*
20,1,$1+$1,$8,$9,$2,$3,0*%
G04 Aperture macros list end*
%ADD10R,1.500000X0.900000*%
%ADD11RoundRect,0.102000X0.966376X-0.067576X0.067576X0.966376X-0.966376X0.067576X-0.067576X-0.966376X0*%
%ADD12C,1.574000*%
G04 APERTURE END LIST*
D10*
%TO.C,D49*%
X-23812000Y17078000D03*
X-23812000Y20378000D03*
X-28712000Y20378000D03*
X-28712000Y17078000D03*
%TD*%
%TO.C,D94*%
X50898000Y24654000D03*
X50898000Y27954000D03*
X45998000Y27954000D03*
X45998000Y24654000D03*
%TD*%
%TO.C,D72*%
X21014000Y9508000D03*
X21014000Y12808000D03*
X16114000Y12808000D03*
X16114000Y9508000D03*
%TD*%
%TO.C,D3*%
X-98522000Y24654000D03*
X-98522000Y27954000D03*
X-103422000Y27954000D03*
X-103422000Y24654000D03*
%TD*%
%TO.C,D71*%
X21014000Y1926000D03*
X21014000Y5226000D03*
X16114000Y5226000D03*
X16114000Y1926000D03*
%TD*%
%TO.C,D12*%
X-83580000Y1926000D03*
X-83580000Y5226000D03*
X-88480000Y5226000D03*
X-88480000Y1926000D03*
%TD*%
%TO.C,D89*%
X43427000Y24654000D03*
X43427000Y27954000D03*
X38527000Y27954000D03*
X38527000Y24654000D03*
%TD*%
%TO.C,D27*%
X-61167000Y1926000D03*
X-61167000Y5226000D03*
X-66067000Y5226000D03*
X-66067000Y1926000D03*
%TD*%
%TO.C,D79*%
X28485000Y32227000D03*
X28485000Y35527000D03*
X23585000Y35527000D03*
X23585000Y32227000D03*
%TD*%
%TO.C,D35*%
X-46225000Y1926000D03*
X-46225000Y5226000D03*
X-51125000Y5226000D03*
X-51125000Y1926000D03*
%TD*%
%TO.C,D28*%
X-61167000Y9508000D03*
X-61167000Y12808000D03*
X-66067000Y12808000D03*
X-66067000Y9508000D03*
%TD*%
%TO.C,D5*%
X-94320000Y39802000D03*
X-94320000Y43102000D03*
X-99220000Y43102000D03*
X-99220000Y39802000D03*
%TD*%
%TO.C,D51*%
X-16341000Y1926000D03*
X-16341000Y5226000D03*
X-21241000Y5226000D03*
X-21241000Y1926000D03*
%TD*%
%TO.C,D92*%
X50898000Y9508000D03*
X50898000Y12808000D03*
X45998000Y12808000D03*
X45998000Y9508000D03*
%TD*%
%TO.C,D52*%
X-16341000Y9508000D03*
X-16341000Y12808000D03*
X-21241000Y12808000D03*
X-21241000Y9508000D03*
%TD*%
%TO.C,D30*%
X-61167000Y24654000D03*
X-61167000Y27954000D03*
X-66067000Y27954000D03*
X-66067000Y24654000D03*
%TD*%
%TO.C,D68*%
X13543000Y9508000D03*
X13543000Y12808000D03*
X8643000Y12808000D03*
X8643000Y9508000D03*
%TD*%
%TO.C,D56*%
X-8870000Y9508000D03*
X-8870000Y12808000D03*
X-13770000Y12808000D03*
X-13770000Y9508000D03*
%TD*%
%TO.C,D21*%
X-76109000Y24654000D03*
X-76109000Y27954000D03*
X-81009000Y27954000D03*
X-81009000Y24654000D03*
%TD*%
%TO.C,D88*%
X43427000Y17078000D03*
X43427000Y20378000D03*
X38527000Y20378000D03*
X38527000Y17078000D03*
%TD*%
%TO.C,D8*%
X-91051000Y17078000D03*
X-91051000Y20378000D03*
X-95951000Y20378000D03*
X-95951000Y17078000D03*
%TD*%
%TO.C,D40*%
X-38754000Y9508000D03*
X-38754000Y12808000D03*
X-43654000Y12808000D03*
X-43654000Y9508000D03*
%TD*%
%TO.C,D39*%
X-38754000Y1926000D03*
X-38754000Y5226000D03*
X-43654000Y5226000D03*
X-43654000Y1926000D03*
%TD*%
%TO.C,D62*%
X-1399000Y24654000D03*
X-1399000Y27954000D03*
X-6299000Y27954000D03*
X-6299000Y24654000D03*
%TD*%
%TO.C,D91*%
X38126000Y39802000D03*
X38126000Y43102000D03*
X33226000Y43102000D03*
X33226000Y39802000D03*
%TD*%
%TO.C,D58*%
X-8870000Y24654000D03*
X-8870000Y27954000D03*
X-13770000Y27954000D03*
X-13770000Y24654000D03*
%TD*%
%TO.C,D42*%
X-38754000Y24654000D03*
X-38754000Y27954000D03*
X-43654000Y27954000D03*
X-43654000Y24654000D03*
%TD*%
%TO.C,D73*%
X21014000Y17078000D03*
X21014000Y20378000D03*
X16114000Y20378000D03*
X16114000Y17078000D03*
%TD*%
%TO.C,D54*%
X-16341000Y24654000D03*
X-16341000Y27954000D03*
X-21241000Y27954000D03*
X-21241000Y24654000D03*
%TD*%
%TO.C,D81*%
X35956000Y9508000D03*
X35956000Y12808000D03*
X31056000Y12808000D03*
X31056000Y9508000D03*
%TD*%
%TO.C,D7*%
X-91051000Y9508000D03*
X-91051000Y12808000D03*
X-95951000Y12808000D03*
X-95951000Y9508000D03*
%TD*%
%TO.C,D86*%
X43427000Y1926000D03*
X43427000Y5226000D03*
X38527000Y5226000D03*
X38527000Y1926000D03*
%TD*%
%TO.C,D76*%
X28485000Y9508000D03*
X28485000Y12808000D03*
X23585000Y12808000D03*
X23585000Y9508000D03*
%TD*%
%TO.C,D45*%
X-31283000Y17078000D03*
X-31283000Y20378000D03*
X-36183000Y20378000D03*
X-36183000Y17078000D03*
%TD*%
%TO.C,D9*%
X-91051000Y24654000D03*
X-91051000Y27954000D03*
X-95951000Y27954000D03*
X-95951000Y24654000D03*
%TD*%
%TO.C,D46*%
X-31283000Y24654000D03*
X-31283000Y27954000D03*
X-36183000Y27954000D03*
X-36183000Y24654000D03*
%TD*%
%TO.C,D53*%
X-16341000Y17078000D03*
X-16341000Y20378000D03*
X-21241000Y20378000D03*
X-21241000Y17078000D03*
%TD*%
%TO.C,D2*%
X-98522000Y17078000D03*
X-98522000Y20378000D03*
X-103422000Y20378000D03*
X-103422000Y17078000D03*
%TD*%
%TO.C,D57*%
X-8870000Y17078000D03*
X-8870000Y20378000D03*
X-13770000Y20378000D03*
X-13770000Y17078000D03*
%TD*%
%TO.C,D36*%
X-46225000Y9508000D03*
X-46225000Y12808000D03*
X-51125000Y12808000D03*
X-51125000Y9508000D03*
%TD*%
%TO.C,D69*%
X13543000Y17078000D03*
X13543000Y20378000D03*
X8643000Y20378000D03*
X8643000Y17078000D03*
%TD*%
%TO.C,D82*%
X35956000Y17078000D03*
X35956000Y20378000D03*
X31056000Y20378000D03*
X31056000Y17078000D03*
%TD*%
%TO.C,D19*%
X-76109000Y9508000D03*
X-76109000Y12808000D03*
X-81009000Y12808000D03*
X-81009000Y9508000D03*
%TD*%
%TO.C,D23*%
X-68638000Y1926000D03*
X-68638000Y5226000D03*
X-73538000Y5226000D03*
X-73538000Y1926000D03*
%TD*%
%TO.C,D60*%
X-1399000Y9508000D03*
X-1399000Y12808000D03*
X-6299000Y12808000D03*
X-6299000Y9508000D03*
%TD*%
%TO.C,D6*%
X-91051000Y1926000D03*
X-91051000Y5226000D03*
X-95951000Y5226000D03*
X-95951000Y1926000D03*
%TD*%
%TO.C,D1*%
X-98522000Y9508000D03*
X-98522000Y12808000D03*
X-103422000Y12808000D03*
X-103422000Y9508000D03*
%TD*%
%TO.C,D10*%
X-91051000Y32227000D03*
X-91051000Y35527000D03*
X-95951000Y35527000D03*
X-95951000Y32227000D03*
%TD*%
%TO.C,D41*%
X-38754000Y17078000D03*
X-38754000Y20378000D03*
X-43654000Y20378000D03*
X-43654000Y17078000D03*
%TD*%
%TO.C,D11*%
X-86849000Y39802000D03*
X-86849000Y43102000D03*
X-91749000Y43102000D03*
X-91749000Y39802000D03*
%TD*%
%TO.C,D75*%
X28485000Y1926000D03*
X28485000Y5226000D03*
X23585000Y5226000D03*
X23585000Y1926000D03*
%TD*%
%TO.C,D25*%
X-68638000Y17078000D03*
X-68638000Y20378000D03*
X-73538000Y20378000D03*
X-73538000Y17078000D03*
%TD*%
%TO.C,D31*%
X-53696000Y1926000D03*
X-53696000Y5226000D03*
X-58596000Y5226000D03*
X-58596000Y1926000D03*
%TD*%
%TO.C,D67*%
X13543000Y1926000D03*
X13543000Y5226000D03*
X8643000Y5226000D03*
X8643000Y1926000D03*
%TD*%
%TO.C,D32*%
X-53696000Y9508000D03*
X-53696000Y12808000D03*
X-58596000Y12808000D03*
X-58596000Y9508000D03*
%TD*%
%TO.C,D63*%
X6072000Y1926000D03*
X6072000Y5226000D03*
X1172000Y5226000D03*
X1172000Y1926000D03*
%TD*%
%TO.C,D43*%
X-31283000Y1926000D03*
X-31283000Y5226000D03*
X-36183000Y5226000D03*
X-36183000Y1926000D03*
%TD*%
%TO.C,D95*%
X50898000Y32227000D03*
X50898000Y35527000D03*
X45998000Y35527000D03*
X45998000Y32227000D03*
%TD*%
%TO.C,D16*%
X-83580000Y32227000D03*
X-83580000Y35527000D03*
X-88480000Y35527000D03*
X-88480000Y32227000D03*
%TD*%
%TO.C,D47*%
X-23812000Y1926000D03*
X-23812000Y5226000D03*
X-28712000Y5226000D03*
X-28712000Y1926000D03*
%TD*%
%TO.C,D66*%
X6072000Y24654000D03*
X6072000Y27954000D03*
X1172000Y27954000D03*
X1172000Y24654000D03*
%TD*%
%TO.C,D84*%
X35956000Y32227000D03*
X35956000Y35527000D03*
X31056000Y35527000D03*
X31056000Y32227000D03*
%TD*%
%TO.C,D70*%
X13543000Y24654000D03*
X13543000Y27954000D03*
X8643000Y27954000D03*
X8643000Y24654000D03*
%TD*%
%TO.C,D87*%
X43427000Y9508000D03*
X43427000Y12808000D03*
X38527000Y12808000D03*
X38527000Y9508000D03*
%TD*%
%TO.C,D55*%
X-8870000Y1926000D03*
X-8870000Y5226000D03*
X-13770000Y5226000D03*
X-13770000Y1926000D03*
%TD*%
%TO.C,D14*%
X-83580000Y17078000D03*
X-83580000Y20378000D03*
X-88480000Y20378000D03*
X-88480000Y17078000D03*
%TD*%
%TO.C,D33*%
X-53696000Y17078000D03*
X-53696000Y20378000D03*
X-58596000Y20378000D03*
X-58596000Y17078000D03*
%TD*%
%TO.C,D15*%
X-83580000Y24654000D03*
X-83580000Y27954000D03*
X-88480000Y27954000D03*
X-88480000Y24654000D03*
%TD*%
%TO.C,D74*%
X21014000Y24654000D03*
X21014000Y27954000D03*
X16114000Y27954000D03*
X16114000Y24654000D03*
%TD*%
%TO.C,D85*%
X30655000Y39802000D03*
X30655000Y43102000D03*
X25755000Y43102000D03*
X25755000Y39802000D03*
%TD*%
%TO.C,D93*%
X50898000Y17078000D03*
X50898000Y20378000D03*
X45998000Y20378000D03*
X45998000Y17078000D03*
%TD*%
%TO.C,D77*%
X28485000Y17078000D03*
X28485000Y20378000D03*
X23585000Y20378000D03*
X23585000Y17078000D03*
%TD*%
%TO.C,D4*%
X-98522000Y32227000D03*
X-98522000Y35527000D03*
X-103422000Y35527000D03*
X-103422000Y32227000D03*
%TD*%
%TO.C,D18*%
X-76109000Y1926000D03*
X-76109000Y5226000D03*
X-81009000Y5226000D03*
X-81009000Y1926000D03*
%TD*%
%TO.C,D20*%
X-76109000Y17078000D03*
X-76109000Y20378000D03*
X-81009000Y20378000D03*
X-81009000Y17078000D03*
%TD*%
%TO.C,D50*%
X-23812000Y24654000D03*
X-23812000Y27954000D03*
X-28712000Y27954000D03*
X-28712000Y24654000D03*
%TD*%
%TO.C,D17*%
X-79380000Y39802000D03*
X-79380000Y43102000D03*
X-84280000Y43102000D03*
X-84280000Y39802000D03*
%TD*%
%TO.C,D26*%
X-68638000Y24654000D03*
X-68638000Y27954000D03*
X-73538000Y27954000D03*
X-73538000Y24654000D03*
%TD*%
%TO.C,D44*%
X-31283000Y9508000D03*
X-31283000Y12808000D03*
X-36183000Y12808000D03*
X-36183000Y9508000D03*
%TD*%
%TO.C,D59*%
X-1399000Y1926000D03*
X-1399000Y5226000D03*
X-6299000Y5226000D03*
X-6299000Y1926000D03*
%TD*%
%TO.C,D80*%
X35956000Y1926000D03*
X35956000Y5226000D03*
X31056000Y5226000D03*
X31056000Y1926000D03*
%TD*%
%TO.C,D24*%
X-68638000Y9508000D03*
X-68638000Y12808000D03*
X-73538000Y12808000D03*
X-73538000Y9508000D03*
%TD*%
%TO.C,D38*%
X-46225000Y24654000D03*
X-46225000Y27954000D03*
X-51125000Y27954000D03*
X-51125000Y24654000D03*
%TD*%
%TO.C,D37*%
X-46225000Y17078000D03*
X-46225000Y20378000D03*
X-51125000Y20378000D03*
X-51125000Y17078000D03*
%TD*%
%TO.C,D90*%
X43427000Y32227000D03*
X43427000Y35527000D03*
X38527000Y35527000D03*
X38527000Y32227000D03*
%TD*%
%TO.C,D65*%
X6072000Y17078000D03*
X6072000Y20378000D03*
X1172000Y20378000D03*
X1172000Y17078000D03*
%TD*%
%TO.C,D78*%
X28485000Y24654000D03*
X28485000Y27954000D03*
X23585000Y27954000D03*
X23585000Y24654000D03*
%TD*%
%TO.C,D96*%
X45597000Y39802000D03*
X45597000Y43102000D03*
X40697000Y43102000D03*
X40697000Y39802000D03*
%TD*%
%TO.C,D83*%
X35956000Y24654000D03*
X35956000Y27954000D03*
X31056000Y27954000D03*
X31056000Y24654000D03*
%TD*%
%TO.C,D29*%
X-61167000Y17078000D03*
X-61167000Y20378000D03*
X-66067000Y20378000D03*
X-66067000Y17078000D03*
%TD*%
%TO.C,D22*%
X-76109000Y32227000D03*
X-76109000Y35527000D03*
X-81009000Y35527000D03*
X-81009000Y32227000D03*
%TD*%
%TO.C,D64*%
X6072000Y9508000D03*
X6072000Y12808000D03*
X1172000Y12808000D03*
X1172000Y9508000D03*
%TD*%
%TO.C,D34*%
X-53696000Y24654000D03*
X-53696000Y27954000D03*
X-58596000Y27954000D03*
X-58596000Y24654000D03*
%TD*%
%TO.C,D48*%
X-23812000Y9508000D03*
X-23812000Y12808000D03*
X-28712000Y12808000D03*
X-28712000Y9508000D03*
%TD*%
%TO.C,D61*%
X-1399000Y17078000D03*
X-1399000Y20378000D03*
X-6299000Y20378000D03*
X-6299000Y17078000D03*
%TD*%
%TO.C,D13*%
X-83580000Y9508000D03*
X-83580000Y12808000D03*
X-88480000Y12808000D03*
X-88480000Y9508000D03*
%TD*%
D11*
%TO.C,J1*%
X-98742611Y2596039D03*
D12*
X-100409000Y4513000D03*
X-102075389Y6429961D03*
%TD*%
M02*
